SplineFontDB: 3.0
FontName: SpinCycleOT
FullName: Spin Cycle OT
FamilyName: Spin Cycle OT
Weight: Regular
Copyright: Copyright (c) 2005 by BV Fonts. All rights reserved.
Version: 001.001
ItalicAngle: 0
UnderlinePosition: -100
UnderlineWidth: 50
Ascent: 750
Descent: 250
InvalidEm: 0
sfntRevision: 0x00010000
LayerCount: 2
Layer: 0 0 "Back" 1
Layer: 1 0 "Fore" 0
XUID: [1021 919 204776588 2785]
StyleMap: 0x0040
FSType: 8
OS2Version: 2
OS2_WeightWidthSlopeOnly: 0
OS2_UseTypoMetrics: 0
CreationTime: 1232136997
ModificationTime: 1528764767
PfmFamily: 17
TTFWeight: 400
TTFWidth: 5
LineGap: 100
VLineGap: 0
Panose: 2 0 0 0 0 0 0 0 0 0
OS2TypoAscent: 750
OS2TypoAOffset: 0
OS2TypoDescent: -250
OS2TypoDOffset: 0
OS2TypoLinegap: 100
OS2WinAscent: 800
OS2WinAOffset: 0
OS2WinDescent: 300
OS2WinDOffset: 0
HheadAscent: 750
HheadAOffset: 0
HheadDescent: -250
HheadDOffset: 0
OS2SubXSize: 700
OS2SubYSize: 650
OS2SubXOff: 0
OS2SubYOff: 140
OS2SupXSize: 700
OS2SupYSize: 650
OS2SupXOff: 0
OS2SupYOff: 477
OS2StrikeYSize: 50
OS2StrikeYPos: 250
OS2CapHeight: 650
OS2XHeight: 650
OS2Vendor: 'PYRS'
OS2CodePages: 20000001.00000000
OS2UnicodeRanges: 00000003.00000000.00000000.00000000
Lookup: 4 0 1 "'liga' Standard Ligatures in Latin lookup 0" { "'liga' Standard Ligatures in Latin lookup 0 subtable"  } ['liga' ('latn' <'dflt' > ) ]
Lookup: 258 0 0 "'kern' Horizontal Kerning in Latin lookup 0" { "'kern' Horizontal Kerning in Latin lookup 0 subtable"  } ['kern' ('latn' <'dflt' > ) ]
DEI: 91125
LangName: 1033 "" "" "" "BVFonts: Spin Cycle OT: 2005" "SpinCycleOT" "Version 1.000" "" "Spin Cycle OT is a trademark of BV Fonts." "BV Fonts" "Jess Latham" "Copyright (c) 2005 by BV Fonts. All rights reserved." "" "bvfonts.com"
Encoding: UnicodeBmp
UnicodeInterp: none
NameList: AGL For New Fonts
DisplaySize: -48
AntiAlias: 1
FitToEm: 0
WinInfo: 0 39 13
BeginPrivate: 2
BlueValues 23 [-21 0 633 634 647 648]
OtherBlues 11 [-238 -238]
EndPrivate
BeginChars: 65539 248

StartChar: .notdef
Encoding: 65536 -1 0
Width: 533
Flags: W
LayerCount: 2
Fore
SplineSet
52 0 m 1
 52 644 l 1
 486 644 l 1
 486 0 l 1
 52 0 l 1
77 618 m 1
 77 23 l 1
 460 23 l 1
 460 618 l 1
 77 618 l 1
EndSplineSet
EndChar

StartChar: exclam
Encoding: 33 33 4
Width: 252
Flags: W
LayerCount: 2
Fore
SplineSet
227 632 m 1
 211 222 l 1
 52 222 l 1
 36 632 l 1
 227 632 l 1
126 179 m 0
 182 179 227 134 227 78 c 0
 227 23 182 -23 126 -23 c 0
 70 -23 25 23 25 78 c 0
 25 134 70 179 126 179 c 0
EndSplineSet
EndChar

StartChar: quotedbl
Encoding: 34 34 5
Width: 528
Flags: W
LayerCount: 2
Fore
SplineSet
41 317 m 1
 25 617 l 1
 215 617 l 1
 199 317 l 1
 41 317 l 1
329 319 m 1
 313 618 l 1
 503 618 l 1
 487 319 l 1
 329 319 l 1
EndSplineSet
EndChar

StartChar: numbersign
Encoding: 35 35 6
Width: 724
Flags: W
LayerCount: 2
Fore
SplineSet
657 617 m 1
 621 517 l 1
 699 517 l 1
 653 390 l 1
 575 390 l 1
 521 242 l 1
 599 242 l 1
 553 115 l 1
 475 115 l 1
 439 16 l 1
 312 16 l 1
 348 115 l 1
 221 115 l 1
 185 16 l 1
 58 16 l 1
 94 115 l 1
 25 115 l 1
 71 242 l 1
 140 242 l 1
 194 390 l 1
 116 390 l 1
 162 517 l 1
 241 517 l 1
 277 617 l 1
 404 617 l 1
 367 517 l 1
 494 517 l 1
 530 617 l 1
 657 617 l 1
394 242 m 1
 448 390 l 1
 321 390 l 1
 267 242 l 1
 394 242 l 1
EndSplineSet
EndChar

StartChar: dollar
Encoding: 36 36 7
Width: 438
Flags: W
LayerCount: 2
Fore
SplineSet
136 408 m 0
 136 398 136 384 150 384 c 2
 288 384 l 2
 357 384 413 328 413 259 c 0
 413 187 367 127 291 125 c 1
 291 6 l 1
 180 6 l 1
 180 125 l 1
 61 125 l 1
 61 236 l 1
 288 236 l 2
 296 236 302 243 302 250 c 0
 302 260 303 273 288 273 c 2
 150 273 l 2
 81 273 25 330 25 398 c 0
 25 472 73 533 150 533 c 2
 180 533 l 1
 180 627 l 1
 291 627 l 1
 291 533 l 1
 378 533 l 1
 378 421 l 1
 150 421 l 2
 142 421 136 415 136 408 c 0
EndSplineSet
EndChar

StartChar: percent
Encoding: 37 37 8
Width: 936
Flags: W
LayerCount: 2
Fore
SplineSet
710 400 m 0
 820 400 911 310 911 199 c 0
 911 89 820 -2 710 -2 c 2
 432 -2 l 2
 366 -2 307 38 307 108 c 0
 307 133 315 157 327 178 c 2
 512 509 l 2
 514 513 516 517 517 521 c 1
 513 523 508 523 504 523 c 2
 427 523 l 1
 427 433 l 2
 427 323 337 232 226 232 c 0
 115 232 25 323 25 433 c 0
 25 544 115 634 226 634 c 2
 504 634 l 2
 569 634 628 595 628 524 c 0
 628 500 621 476 609 455 c 2
 424 124 l 2
 422 120 419 116 419 111 c 1
 423 110 428 109 432 109 c 2
 509 109 l 1
 509 199 l 2
 509 310 599 400 710 400 c 0
316 433 m 2
 316 523 l 1
 226 523 l 2
 176 523 136 483 136 433 c 0
 136 384 176 343 226 343 c 0
 275 343 316 384 316 433 c 2
710 109 m 2
 759 109 800 150 800 199 c 0
 800 249 759 289 710 289 c 0
 660 289 620 249 620 199 c 2
 620 109 l 1
 710 109 l 2
EndSplineSet
EndChar

StartChar: ampersand
Encoding: 38 38 9
Width: 701
Flags: W
LayerCount: 2
Fore
SplineSet
437 159 m 2
 454 159 469 173 469 190 c 2
 469 253 l 2
 469 331 533 396 611 396 c 2
 676 396 l 1
 676 237 l 1
 627 237 l 1
 627 190 l 2
 627 86 542 0 437 0 c 2
 215 0 l 2
 111 0 25 86 25 190 c 0
 25 278 63 351 148 383 c 1
 115 409 l 2
 114 409 109 416 109 417 c 0
 88 444 74 476 74 511 c 0
 74 590 142 633 215 633 c 2
 548 633 l 1
 548 474 l 1
 290 474 l 1
 363 418 l 2
 390 396 411 367 411 331 c 0
 411 270 358 237 301 237 c 2
 215 237 l 2
 198 237 184 222 184 205 c 0
 184 184 186 159 215 159 c 2
 437 159 l 2
EndSplineSet
EndChar

StartChar: quotesingle
Encoding: 39 39 10
Width: 240
Flags: W
LayerCount: 2
Fore
SplineSet
41 317 m 1
 25 617 l 1
 215 617 l 1
 199 317 l 1
 41 317 l 1
EndSplineSet
EndChar

StartChar: parenleft
Encoding: 40 40 11
Width: 378
Flags: W
LayerCount: 2
Fore
SplineSet
25 316 m 0
 25 498 169 652 353 653 c 1
 353 494 l 1
 256 494 184 411 184 316 c 0
 184 222 256 139 353 139 c 1
 353 -20 l 1
 169 -20 25 134 25 316 c 0
EndSplineSet
EndChar

StartChar: parenright
Encoding: 41 41 12
Width: 378
Flags: W
LayerCount: 2
Fore
SplineSet
353 316 m 0
 353 134 209 -20 25 -20 c 1
 25 139 l 1
 122 139 194 222 194 316 c 0
 194 411 122 494 25 494 c 1
 25 653 l 1
 209 652 353 498 353 316 c 0
EndSplineSet
EndChar

StartChar: asterisk
Encoding: 42 42 13
Width: 701
Flags: W
LayerCount: 2
Fore
SplineSet
350 642 m 0
 399 642 438 605 438 555 c 0
 438 552 438 549 437 546 c 2
 422 403 l 1
 553 462 l 2
 564 467 577 470 589 470 c 0
 638 470 676 429 676 381 c 0
 676 339 647 305 606 296 c 2
 466 267 l 1
 562 161 l 2
 577 145 585 124 585 102 c 0
 585 54 544 14 496 14 c 0
 465 14 437 32 422 59 c 2
 350 183 l 1
 279 58 l 2
 264 32 235 14 204 14 c 0
 157 14 115 54 115 102 c 0
 115 124 124 145 138 161 c 2
 235 267 l 1
 94 296 l 2
 54 305 25 339 25 380 c 0
 25 429 62 470 112 470 c 0
 124 470 137 467 148 462 c 2
 279 403 l 1
 263 546 l 1
 263 555 l 2
 263 604 301 642 350 642 c 0
EndSplineSet
EndChar

StartChar: plus
Encoding: 43 43 14
Width: 558
Flags: W
LayerCount: 2
Fore
SplineSet
358 570 m 1
 358 396 l 1
 533 396 l 1
 533 237 l 1
 358 237 l 1
 358 63 l 1
 199 63 l 1
 199 237 l 1
 25 237 l 1
 25 396 l 1
 199 396 l 1
 199 570 l 1
 358 570 l 1
EndSplineSet
EndChar

StartChar: comma
Encoding: 44 44 15
Width: 251
Flags: W
LayerCount: 2
Fore
SplineSet
126 187 m 0
 194 187 226 128 226 66 c 0
 226 -32 171 -109 84 -153 c 1
 68 -131 l 1
 89 -112 135 -65 135 -36 c 0
 135 -22 124 -17 112 -14 c 0
 63 -1 25 32 25 86 c 0
 25 142 70 187 126 187 c 0
EndSplineSet
EndChar

StartChar: hyphen
Encoding: 45 45 16
Width: 410
Flags: W
LayerCount: 2
Fore
SplineSet
25 396 m 1
 385 396 l 1
 385 237 l 1
 25 237 l 1
 25 396 l 1
EndSplineSet
EndChar

StartChar: period
Encoding: 46 46 17
Width: 252
Flags: W
LayerCount: 2
Fore
SplineSet
126 188 m 0
 182 188 227 142 227 87 c 0
 227 31 182 -14 126 -14 c 0
 70 -14 25 31 25 87 c 0
 25 142 70 188 126 188 c 0
EndSplineSet
EndChar

StartChar: slash
Encoding: 47 47 18
Width: 441
Flags: W
LayerCount: 2
Fore
SplineSet
25 1 m 1
 246 632 l 1
 416 632 l 1
 193 1 l 1
 25 1 l 1
EndSplineSet
EndChar

StartChar: zero
Encoding: 48 48 19
Width: 701
Flags: W
LayerCount: 2
Fore
SplineSet
351 647 m 0
 534 647 676 494 676 313 c 0
 676 133 534 -21 351 -21 c 0
 168 -21 25 133 25 313 c 0
 25 494 168 647 351 647 c 0
351 137 m 0
 447 137 519 220 519 313 c 0
 519 407 447 490 351 490 c 0
 255 490 182 407 182 313 c 0
 182 220 254 137 351 137 c 0
EndSplineSet
EndChar

StartChar: one
Encoding: 49 49 20
Width: 532
Flags: HW
LayerCount: 2
Fore
SplineSet
211 0 m 1
 191 418 l 2
 189.241269041 454.757477053 164 476 125 476 c 2
 25 476 l 5
 25 633 l 5
 124 633 l 2
 219 633 331.605806748 562.649079514 339 471 c 2
 377 0 l 1
 211 0 l 1
EndSplineSet
EndChar

StartChar: two
Encoding: 50 50 21
Width: 652
Flags: W
LayerCount: 2
Fore
SplineSet
437 633 m 2
 542 633 627 547 627 442 c 2
 627 427 l 2
 627 323 542 237 437 237 c 2
 215 237 l 2
 205 237 194 236 184 232 c 1
 184 159 l 1
 588 159 l 1
 588 0 l 1
 25 0 l 1
 25 253 l 2
 25 351 131 396 215 396 c 2
 437 396 l 2
 454 396 469 410 469 427 c 0
 469 449 466 474 437 474 c 2
 65 474 l 1
 65 633 l 1
 437 633 l 2
EndSplineSet
EndChar

StartChar: three
Encoding: 51 51 22
Width: 613
Flags: W
LayerCount: 2
Fore
SplineSet
397 633 m 2
 502 633 588 547 588 442 c 0
 588 394 581 356 552 316 c 1
 575 284 588 245 588 205 c 2
 588 190 l 2
 588 86 502 0 397 0 c 2
 41 0 l 1
 41 159 l 1
 397 159 l 2
 414 159 429 173 429 190 c 0
 429 212 426 237 397 237 c 2
 239 237 l 1
 239 396 l 1
 397 396 l 2
 414 396 429 410 429 427 c 0
 429 449 426 474 397 474 c 2
 25 474 l 1
 25 633 l 1
 397 633 l 2
EndSplineSet
EndChar

StartChar: four
Encoding: 52 52 23
Width: 689
Flags: W
LayerCount: 2
Fore
SplineSet
516 279 m 1
 664 279 l 1
 664 121 l 1
 516 121 l 1
 516 0 l 1
 358 0 l 1
 358 121 l 1
 169 121 l 2
 95 121 25 163 25 244 c 0
 25 278 39 310 59 337 c 2
 283 633 l 1
 516 633 l 1
 516 279 l 1
358 279 m 1
 358 469 l 1
 215 279 l 1
 358 279 l 1
EndSplineSet
EndChar

StartChar: five
Encoding: 53 53 24
Width: 652
Flags: W
LayerCount: 2
Fore
SplineSet
184 395 m 1
 437 395 l 2
 542 395 627 310 627 205 c 2
 627 190 l 2
 627 86 542 0 437 0 c 2
 65 0 l 1
 65 159 l 1
 437 159 l 2
 454 159 469 173 469 190 c 0
 469 212 466 237 437 237 c 2
 215 237 l 2
 131 237 25 282 25 380 c 2
 25 633 l 1
 548 633 l 1
 548 474 l 1
 184 474 l 1
 184 395 l 1
EndSplineSet
EndChar

StartChar: six
Encoding: 54 54 25
Width: 652
Flags: W
LayerCount: 2
Fore
SplineSet
184 396 m 1
 437 396 l 2
 542 396 627 310 627 205 c 2
 627 190 l 2
 627 86 542 0 437 0 c 2
 215 0 l 2
 111 0 25 86 25 190 c 2
 25 442 l 2
 25 547 111 633 215 633 c 2
 548 633 l 1
 548 474 l 1
 215 474 l 2
 198 474 184 459 184 442 c 2
 184 396 l 1
469 190 m 2
 469 205 l 2
 469 222 454 237 437 237 c 2
 184 237 l 1
 184 190 l 2
 184 173 198 159 215 159 c 2
 437 159 l 2
 454 159 469 173 469 190 c 2
EndSplineSet
EndChar

StartChar: seven
Encoding: 55 55 26
Width: 536
Flags: W
LayerCount: 2
Fore
SplineSet
358 633 m 2
 440 633 511 578 511 492 c 0
 511 467 504 442 494 419 c 2
 299 0 l 1
 124 0 l 1
 344 474 l 1
 25 474 l 1
 25 633 l 1
 358 633 l 2
EndSplineSet
EndChar

StartChar: eight
Encoding: 56 56 27
Width: 652
Flags: W
LayerCount: 2
Fore
SplineSet
437 633 m 2
 542 633 627 547 627 442 c 0
 627 394 620 356 591 316 c 1
 614 284 627 245 627 205 c 2
 627 190 l 2
 627 86 542 0 437 0 c 2
 215 0 l 2
 111 0 25 86 25 190 c 0
 25 239 32 276 61 316 c 1
 38 348 25 388 25 427 c 2
 25 442 l 2
 25 547 111 633 215 633 c 2
 437 633 l 2
184 442 m 2
 184 427 l 2
 184 410 198 396 215 396 c 2
 437 396 l 2
 454 396 469 410 469 427 c 2
 469 442 l 2
 469 459 454 474 437 474 c 2
 215 474 l 2
 198 474 184 459 184 442 c 2
469 190 m 2
 469 205 l 2
 469 222 454 237 437 237 c 2
 215 237 l 2
 198 237 184 222 184 205 c 2
 184 190 l 2
 184 173 198 159 215 159 c 2
 437 159 l 2
 454 159 469 173 469 190 c 2
EndSplineSet
EndChar

StartChar: nine
Encoding: 57 57 28
Width: 652
Flags: W
LayerCount: 2
Fore
SplineSet
437 633 m 2
 542 633 627 547 627 442 c 2
 627 190 l 2
 627 86 542 0 437 0 c 2
 104 0 l 1
 104 159 l 1
 437 159 l 2
 454 159 469 173 469 190 c 2
 469 237 l 1
 215 237 l 2
 111 237 25 323 25 427 c 2
 25 442 l 2
 25 547 111 633 215 633 c 2
 437 633 l 2
469 396 m 1
 469 442 l 2
 469 459 454 474 437 474 c 2
 215 474 l 2
 198 474 184 459 184 442 c 2
 184 427 l 2
 184 410 198 396 215 396 c 2
 469 396 l 1
EndSplineSet
EndChar

StartChar: colon
Encoding: 58 58 29
Width: 252
Flags: W
LayerCount: 2
Fore
SplineSet
126 188 m 0
 182 188 227 142 227 87 c 0
 227 31 182 -14 126 -14 c 0
 70 -14 25 31 25 87 c 0
 25 142 70 188 126 188 c 0
126 521 m 0
 182 521 227 476 227 420 c 0
 227 364 182 319 126 319 c 0
 70 319 25 364 25 420 c 0
 25 476 70 521 126 521 c 0
EndSplineSet
EndChar

StartChar: semicolon
Encoding: 59 59 30
Width: 260
Flags: W
LayerCount: 2
Fore
SplineSet
134 187 m 0
 202 187 235 128 235 66 c 0
 235 -32 179 -109 92 -153 c 1
 77 -131 l 1
 98 -112 143 -65 143 -36 c 0
 143 -22 132 -17 120 -14 c 0
 71 -1 33 32 33 86 c 0
 33 142 79 187 134 187 c 0
126 319 m 0
 70 319 25 364 25 420 c 0
 25 476 70 521 126 521 c 0
 182 521 227 476 227 420 c 0
 227 364 182 319 126 319 c 0
EndSplineSet
EndChar

StartChar: less
Encoding: 60 60 31
Width: 534
Flags: W
LayerCount: 2
Fore
SplineSet
509 224 m 1
 509 54 l 1
 119 203 l 2
 70 221 25 260 25 316 c 0
 25 373 68 411 117 431 c 2
 509 586 l 1
 509 416 l 1
 440 389 368 369 297 349 c 0
 264 339 231 330 199 318 c 1
 235 304 274 295 311 285 c 0
 377 266 444 248 509 224 c 1
EndSplineSet
EndChar

StartChar: equal
Encoding: 61 61 32
Width: 494
Flags: W
LayerCount: 2
Fore
SplineSet
25 352 m 1
 25 511 l 1
 469 511 l 1
 469 352 l 1
 25 352 l 1
25 130 m 1
 25 289 l 1
 469 289 l 1
 469 130 l 1
 25 130 l 1
EndSplineSet
EndChar

StartChar: greater
Encoding: 62 62 33
Width: 534
Flags: W
LayerCount: 2
Fore
SplineSet
25 54 m 1
 25 224 l 1
 89 248 156 266 222 285 c 0
 260 295 298 304 335 318 c 1
 303 330 269 339 236 349 c 0
 165 369 94 389 25 416 c 1
 25 586 l 1
 416 431 l 2
 466 411 509 373 509 316 c 0
 509 260 464 221 415 203 c 2
 25 54 l 1
EndSplineSet
EndChar

StartChar: question
Encoding: 63 63 34
Width: 429
Flags: W
LayerCount: 2
Fore
SplineSet
306 101 m 0
 306 45 261 0 205 0 c 0
 149 0 104 45 104 101 c 0
 104 157 149 202 205 202 c 0
 261 202 306 157 306 101 c 0
252 640 m 2
 334 640 404 587 404 501 c 0
 404 475 397 450 386 427 c 2
 293 235 l 1
 117 235 l 1
 237 482 l 1
 25 482 l 1
 25 640 l 1
 252 640 l 2
EndSplineSet
EndChar

StartChar: at
Encoding: 64 64 35
Width: 671
Flags: W
LayerCount: 2
Fore
SplineSet
335 646 m 0
 508 646 646 503 646 332 c 0
 646 208 574 97 461 45 c 0
 424 28 387 11 350 -5 c 1
 350 126 l 1
 270 133 211 203 211 282 c 0
 211 366 278 439 364 439 c 2
 445 439 l 1
 417 469 377 487 335 487 c 0
 250 487 184 416 184 332 c 2
 184 3 l 1
 25 3 l 1
 25 332 l 2
 25 503 163 646 335 646 c 0
368 240 m 0
 393 240 413 260 413 285 c 0
 413 309 393 330 368 330 c 0
 344 330 323 309 323 285 c 0
 323 260 344 240 368 240 c 0
EndSplineSet
EndChar

StartChar: A
Encoding: 65 65 36
Width: 652
Flags: W
LayerCount: 2
Fore
SplineSet
326 648 m 0
 492 648 627 507 627 332 c 2
 627 0 l 1
 469 0 l 1
 469 143 l 1
 184 143 l 1
 184 0 l 1
 25 0 l 1
 25 332 l 2
 25 507 160 648 326 648 c 0
184 332 m 2
 184 301 l 1
 469 301 l 1
 469 332 l 2
 469 419 405 490 326 490 c 0
 248 490 184 419 184 332 c 2
EndSplineSet
EndChar

StartChar: B
Encoding: 66 66 37
Width: 652
Flags: W
LayerCount: 2
Fore
SplineSet
437 633 m 2
 542 633 627 547 627 442 c 0
 627 394 620 356 591 316 c 1
 614 284 627 245 627 205 c 2
 627 190 l 2
 627 86 542 0 437 0 c 2
 25 0 l 1
 25 633 l 1
 437 633 l 2
469 190 m 0
 469 212 466 237 437 237 c 2
 279 237 l 1
 279 396 l 1
 437 396 l 2
 454 396 469 410 469 427 c 0
 469 449 466 474 437 474 c 2
 184 474 l 1
 184 159 l 1
 437 159 l 2
 454 159 469 173 469 190 c 0
EndSplineSet
EndChar

StartChar: C
Encoding: 67 67 38
Width: 573
Flags: W
LayerCount: 2
Fore
SplineSet
25 316 m 0
 25 491 160 633 326 633 c 2
 548 633 l 1
 548 474 l 1
 326 474 l 2
 248 474 184 403 184 316 c 0
 184 229 248 159 326 159 c 2
 548 159 l 1
 548 0 l 1
 326 0 l 2
 160 0 25 142 25 316 c 0
EndSplineSet
EndChar

StartChar: D
Encoding: 68 68 39
Width: 652
Flags: W
LayerCount: 2
Fore
SplineSet
25 633 m 1
 326 633 l 2
 492 633 627 491 627 316 c 0
 627 142 492 0 326 0 c 2
 25 0 l 1
 25 633 l 1
184 159 m 1
 326 159 l 2
 405 159 469 229 469 316 c 0
 469 403 405 474 326 474 c 2
 184 474 l 1
 184 159 l 1
EndSplineSet
EndChar

StartChar: E
Encoding: 69 69 40
Width: 613
Flags: W
LayerCount: 2
Fore
SplineSet
326 633 m 2
 588 633 l 1
 588 474 l 1
 326 474 l 2
 273 474 227 441 203 396 c 1
 469 396 l 1
 469 237 l 1
 203 237 l 1
 227 191 273 159 326 159 c 2
 588 159 l 1
 588 0 l 1
 326 0 l 2
 154 0 25 149 25 316 c 0
 25 484 154 633 326 633 c 2
EndSplineSet
EndChar

StartChar: F
Encoding: 70 70 41
Width: 573
Flags: W
LayerCount: 2
Fore
SplineSet
548 474 m 1
 326 474 l 2
 242 474 184 396 184 316 c 2
 184 312 l 1
 479 312 l 1
 479 153 l 1
 184 153 l 1
 184 0 l 1
 25 0 l 1
 25 316 l 2
 25 484 154 633 326 633 c 2
 548 633 l 1
 548 474 l 1
EndSplineSet
EndChar

StartChar: G
Encoding: 71 71 42
Width: 652
Flags: W
LayerCount: 2
Fore
SplineSet
326 633 m 2
 627 633 l 1
 627 474 l 1
 326 474 l 2
 242 474 184 396 184 316 c 0
 184 236 242 159 326 159 c 2
 469 159 l 1
 469 237 l 1
 321 237 l 1
 321 396 l 1
 627 396 l 1
 627 0 l 1
 326 0 l 2
 154 0 25 149 25 316 c 0
 25 484 154 633 326 633 c 2
EndSplineSet
EndChar

StartChar: H
Encoding: 72 72 43
Width: 614
Flags: W
LayerCount: 2
Fore
SplineSet
184 396 m 1
 430 396 l 1
 430 633 l 1
 589 633 l 1
 589 0 l 1
 430 0 l 1
 430 237 l 1
 184 237 l 1
 184 0 l 1
 25 0 l 1
 25 633 l 1
 184 633 l 1
 184 396 l 1
EndSplineSet
EndChar

StartChar: I
Encoding: 73 73 44
Width: 257
Flags: W
LayerCount: 2
Fore
SplineSet
49 633 m 1
 208 633 l 1
 208 0 l 1
 49 0 l 1
 49 633 l 1
EndSplineSet
EndChar

StartChar: J
Encoding: 74 74 45
Width: 517
Flags: W
LayerCount: 2
Fore
SplineSet
334 634 m 1
 492 634 l 1
 492 259 l 2
 492 116 376 0 234 0 c 2
 25 0 l 1
 25 159 l 1
 234 159 l 2
 289 159 334 204 334 259 c 2
 334 634 l 1
EndSplineSet
EndChar

StartChar: K
Encoding: 75 75 46
Width: 621
Flags: W
LayerCount: 2
Fore
SplineSet
15 -1 m 1
 15 631 l 1
 174 631 l 1
 174 -1 l 1
 15 -1 l 1
396 334 m 1
 409 295 423 256 437 217 c 0
 450 181 465 157 505 157 c 2
 606 157 l 1
 606 -1 l 1
 505 -1 l 2
 409 -1 319 75 288 163 c 2
 214 375 l 1
 408 631 l 1
 606 631 l 1
 396 334 l 1
EndSplineSet
EndChar

StartChar: L
Encoding: 76 76 47
Width: 541
Flags: W
LayerCount: 2
Fore
SplineSet
184 633 m 1
 184 190 l 2
 184 173 198 159 215 159 c 2
 516 159 l 1
 516 0 l 1
 215 0 l 2
 110 0 25 85 25 190 c 2
 25 633 l 1
 184 633 l 1
EndSplineSet
EndChar

StartChar: M
Encoding: 77 77 48
Width: 925
Flags: W
LayerCount: 2
Fore
SplineSet
641 650 m 0
 784 650 900 534 900 391 c 2
 900 0 l 1
 741 0 l 1
 741 391 l 2
 741 446 696 491 641 491 c 0
 586 491 542 446 542 391 c 2
 542 0 l 1
 383 0 l 1
 383 391 l 2
 383 446 338 491 283 491 c 0
 228 491 184 446 184 391 c 2
 184 0 l 1
 25 0 l 1
 25 391 l 2
 25 534 141 650 283 650 c 0
 353 650 416 622 462 577 c 1
 509 622 572 650 641 650 c 0
EndSplineSet
EndChar

StartChar: N
Encoding: 78 78 49
Width: 648
Flags: W
LayerCount: 2
Fore
SplineSet
324 649 m 0
 495 649 623 501 623 334 c 2
 623 0 l 1
 466 0 l 1
 466 334 l 2
 466 414 408 491 324 491 c 0
 240 491 182 414 182 334 c 2
 182 0 l 1
 25 0 l 1
 25 334 l 2
 25 501 153 649 324 649 c 0
EndSplineSet
EndChar

StartChar: O
Encoding: 79 79 50
Width: 701
Flags: W
LayerCount: 2
Fore
SplineSet
351 647 m 0
 534 647 676 494 676 313 c 0
 676 133 534 -21 351 -21 c 0
 168 -21 25 133 25 313 c 0
 25 494 168 647 351 647 c 0
351 137 m 0
 447 137 519 220 519 313 c 0
 519 407 447 490 351 490 c 0
 255 490 182 407 182 313 c 0
 182 220 254 137 351 137 c 0
EndSplineSet
EndChar

StartChar: P
Encoding: 80 80 51
Width: 638
Flags: W
LayerCount: 2
Fore
SplineSet
376 628 m 2
 512 628 613 512 613 380 c 0
 613 248 512 133 376 133 c 2
 182 133 l 1
 182 0 l 1
 25 0 l 1
 25 628 l 1
 376 628 l 2
376 290 m 2
 424 290 456 336 456 380 c 0
 456 424 424 471 376 471 c 2
 182 471 l 1
 182 290 l 1
 376 290 l 2
EndSplineSet
EndChar

StartChar: Q
Encoding: 81 81 52
Width: 701
Flags: W
LayerCount: 2
Fore
SplineSet
351 647 m 0
 534 647 676 493 676 313 c 0
 676 162 576 27 430 -11 c 1
 418 -146 333 -238 193 -238 c 1
 193 -81 l 1
 243 -81 264 -59 271 -11 c 1
 125 27 25 162 25 313 c 0
 25 493 168 647 351 647 c 0
351 136 m 0
 447 136 519 219 519 313 c 0
 519 406 447 489 351 489 c 0
 255 489 182 406 182 313 c 0
 182 219 255 136 351 136 c 0
EndSplineSet
EndChar

StartChar: R
Encoding: 82 82 53
Width: 631
Flags: W
LayerCount: 2
Fore
SplineSet
441 214 m 1
 454 183 471 159 507 159 c 2
 607 159 l 1
 607 0 l 1
 507 0 l 2
 411 0 320 76 290 164 c 2
 217 370 l 1
 414 370 l 2
 441 370 458 398 458 422 c 0
 458 446 441 474 414 474 c 2
 174 474 l 1
 174 0 l 1
 15 0 l 1
 15 633 l 1
 414 633 l 2
 529 633 616 535 616 422 c 0
 616 320 544 228 441 214 c 1
EndSplineSet
EndChar

StartChar: S
Encoding: 83 83 54
Width: 652
Flags: W
LayerCount: 2
Fore
SplineSet
184 443 m 0
 184 422 186 397 215 397 c 2
 437 397 l 2
 542 397 627 311 627 206 c 2
 627 192 l 2
 627 87 542 1 437 1 c 2
 73 1 l 1
 73 160 l 1
 437 160 l 2
 454 160 469 174 469 192 c 0
 469 213 466 238 437 238 c 2
 215 238 l 2
 111 238 25 324 25 429 c 2
 25 443 l 2
 25 548 111 634 215 634 c 2
 580 634 l 1
 580 475 l 1
 215 475 l 2
 198 475 184 461 184 443 c 0
EndSplineSet
EndChar

StartChar: T
Encoding: 84 84 55
Width: 491
Flags: W
LayerCount: 2
Fore
SplineSet
25 633 m 1
 466 633 l 1
 466 476 l 1
 324 476 l 1
 324 0 l 1
 167 0 l 1
 167 476 l 1
 25 476 l 1
 25 633 l 1
EndSplineSet
EndChar

StartChar: U
Encoding: 85 85 56
Width: 648
Flags: W
LayerCount: 2
Fore
SplineSet
324 143 m 0
 408 143 466 220 466 299 c 2
 466 629 l 1
 623 629 l 1
 623 299 l 2
 623 133 495 -15 324 -15 c 0
 153 -15 25 133 25 299 c 2
 25 629 l 1
 182 629 l 1
 182 299 l 2
 182 220 240 143 324 143 c 0
EndSplineSet
EndChar

StartChar: V
Encoding: 86 86 57
Width: 707
Flags: W
LayerCount: 2
Fore
SplineSet
357 224 m 1
 513 632 l 1
 682 632 l 1
 473 81 l 2
 454 32 416 -13 359 -13 c 0
 302 -13 264 29 244 79 c 2
 25 632 l 1
 196 632 l 1
 357 224 l 1
EndSplineSet
EndChar

StartChar: W
Encoding: 87 87 58
Width: 925
Flags: W
LayerCount: 2
Fore
SplineSet
641 142 m 0
 696 142 741 187 741 242 c 2
 741 634 l 1
 900 634 l 1
 900 242 l 2
 900 100 784 -16 641 -16 c 0
 575 -16 510 10 462 56 c 1
 414 10 350 -16 283 -16 c 0
 141 -16 25 100 25 242 c 2
 25 634 l 1
 184 634 l 1
 184 242 l 2
 184 187 228 142 283 142 c 0
 338 142 383 187 383 242 c 2
 383 634 l 1
 542 634 l 1
 542 242 l 2
 542 187 587 142 641 142 c 0
EndSplineSet
EndChar

StartChar: X
Encoding: 88 88 59
Width: 631
Flags: W
LayerCount: 2
Fore
SplineSet
316 489 m 1
 382 581 493 632 606 632 c 1
 606 474 l 1
 519 474 418 413 418 316 c 0
 418 219 519 159 606 159 c 1
 606 0 l 1
 493 0 382 51 316 143 c 1
 249 51 138 0 25 0 c 1
 25 159 l 1
 113 159 214 219 214 316 c 0
 214 413 113 474 25 474 c 1
 25 632 l 1
 138 632 249 581 316 489 c 1
EndSplineSet
EndChar

StartChar: Y
Encoding: 89 89 60
Width: 642
Flags: W
LayerCount: 2
Fore
SplineSet
436 634 m 1
 617 634 l 1
 480 376 l 2
 446 314 414 250 378 189 c 2
 373 181 l 1
 349 138 l 2
 305 59 205 0 115 0 c 2
 25 0 l 1
 25 159 l 1
 115 159 l 2
 146 159 185 182 204 206 c 1
 19 634 l 1
 192 634 l 1
 301 381 l 1
 348 464 392 549 436 634 c 1
EndSplineSet
EndChar

StartChar: Z
Encoding: 90 90 61
Width: 627
Flags: W
LayerCount: 2
Fore
SplineSet
602 518 m 0
 602 475 577 439 546 412 c 2
 252 159 l 1
 597 159 l 1
 597 0 l 1
 177 0 l 2
 105 0 25 32 25 115 c 0
 25 157 50 193 81 220 c 2
 375 474 l 1
 30 474 l 1
 30 633 l 1
 451 633 l 2
 523 633 602 601 602 518 c 0
EndSplineSet
EndChar

StartChar: bracketleft
Encoding: 91 91 62
Width: 294
Flags: W
LayerCount: 2
Fore
SplineSet
25 633 m 1
 269 633 l 1
 269 474 l 1
 184 474 l 1
 184 159 l 1
 269 159 l 1
 269 0 l 1
 25 0 l 1
 25 633 l 1
EndSplineSet
EndChar

StartChar: backslash
Encoding: 92 92 63
Width: 441
Flags: W
LayerCount: 2
Fore
SplineSet
195 632 m 1
 416 1 l 1
 248 1 l 1
 25 632 l 1
 195 632 l 1
EndSplineSet
EndChar

StartChar: bracketright
Encoding: 93 93 64
Width: 294
Flags: W
LayerCount: 2
Fore
SplineSet
25 633 m 1
 269 633 l 1
 269 0 l 1
 25 0 l 1
 25 159 l 1
 111 159 l 1
 111 474 l 1
 25 474 l 1
 25 633 l 1
EndSplineSet
EndChar

StartChar: asciicircum
Encoding: 94 94 65
Width: 534
Flags: W
LayerCount: 2
Fore
SplineSet
533 78 m 1
 363 78 l 1
 339 143 321 210 303 276 c 0
 292 313 283 352 269 388 c 1
 257 356 248 323 238 290 c 0
 218 219 198 147 171 78 c 1
 1 78 l 1
 156 470 l 2
 176 519 214 562 271 562 c 0
 327 562 366 517 384 468 c 2
 533 78 l 1
EndSplineSet
EndChar

StartChar: underscore
Encoding: 95 95 66
Width: 505
Flags: W
LayerCount: 2
Fore
SplineSet
25 -294 m 1
 565 -294 l 1
 565 -453 l 1
 25 -453 l 1
 25 -294 l 1
EndSplineSet
EndChar

StartChar: grave
Encoding: 96 96 67
Width: 227
Flags: W
LayerCount: 2
Fore
SplineSet
128 608 m 1
 202 542 l 1
 132 542 l 1
 25 608 l 1
 128 608 l 1
EndSplineSet
EndChar

StartChar: a
Encoding: 97 97 68
Width: 728
Flags: W
LayerCount: 2
Fore
SplineSet
215 237 m 2
 198 237 184 222 184 205 c 0
 184 184 186 159 215 159 c 2
 437 159 l 1
 437 0 l 1
 215 0 l 2
 111 0 25 86 25 190 c 2
 25 205 l 2
 25 310 111 396 215 396 c 2
 397 396 l 1
 384 436 370 474 322 474 c 2
 79 474 l 1
 79 633 l 1
 322 633 l 2
 418 633 508 556 539 468 c 2
 703 0 l 1
 535 0 l 1
 452 237 l 1
 215 237 l 2
EndSplineSet
EndChar

StartChar: b
Encoding: 98 98 69
Width: 652
Flags: W
LayerCount: 2
Fore
SplineSet
437 633 m 2
 542 633 627 547 627 442 c 0
 627 394 620 356 591 316 c 1
 614 284 627 245 627 205 c 2
 627 190 l 2
 627 86 542 0 437 0 c 2
 25 0 l 1
 25 633 l 1
 437 633 l 2
469 190 m 0
 469 212 466 237 437 237 c 2
 279 237 l 1
 279 396 l 1
 437 396 l 2
 454 396 469 410 469 427 c 0
 469 449 466 474 437 474 c 2
 184 474 l 1
 184 159 l 1
 437 159 l 2
 454 159 469 173 469 190 c 0
EndSplineSet
EndChar

StartChar: c
Encoding: 99 99 70
Width: 573
Flags: W
LayerCount: 2
Fore
SplineSet
16 316 m 0
 16 491 151 633 317 633 c 2
 539 633 l 1
 539 474 l 1
 317 474 l 2
 239 474 175 403 175 316 c 0
 175 229 239 159 317 159 c 2
 539 159 l 1
 539 0 l 1
 317 0 l 2
 151 0 16 142 16 316 c 0
EndSplineSet
EndChar

StartChar: d
Encoding: 100 100 71
Width: 652
Flags: W
LayerCount: 2
Fore
SplineSet
25 633 m 1
 326 633 l 2
 492 633 627 491 627 316 c 0
 627 142 492 0 326 0 c 2
 25 0 l 1
 25 633 l 1
184 159 m 1
 326 159 l 2
 405 159 469 229 469 316 c 0
 469 403 405 474 326 474 c 2
 184 474 l 1
 184 159 l 1
EndSplineSet
EndChar

StartChar: e
Encoding: 101 101 72
Width: 680
Flags: W
LayerCount: 2
Fore
SplineSet
25 318 m 0
 25 490 161 636 335 636 c 2
 471 636 l 2
 572 636 655 553 655 452 c 2
 655 423 l 2
 655 321 572 238 471 238 c 2
 261 238 l 1
 261 397 l 1
 471 397 l 2
 485 397 497 409 497 423 c 0
 497 443 502 478 471 478 c 2
 335 478 l 2
 249 478 184 403 184 318 c 0
 184 234 249 159 335 159 c 2
 634 159 l 1
 634 0 l 1
 335 0 l 2
 161 0 25 146 25 318 c 0
EndSplineSet
EndChar

StartChar: f
Encoding: 102 102 73
Width: 649
Flags: W
LayerCount: 2
Fore
SplineSet
624 474 m 1
 514 474 l 2
 489 474 448 447 436 415 c 2
 421 373 l 1
 509 373 l 1
 509 215 l 1
 362 215 l 1
 342 163 l 2
 308 70 215 0 126 0 c 2
 25 0 l 1
 25 159 l 1
 126 159 l 2
 144 159 181 184 194 218 c 2
 288 470 l 2
 322 563 419 633 514 633 c 2
 624 633 l 1
 624 474 l 1
EndSplineSet
EndChar

StartChar: g
Encoding: 103 103 74
Width: 652
Flags: W
LayerCount: 2
Fore
SplineSet
326 633 m 2
 627 633 l 1
 627 474 l 1
 326 474 l 2
 242 474 184 396 184 316 c 0
 184 236 242 159 326 159 c 2
 469 159 l 1
 469 237 l 1
 321 237 l 1
 321 396 l 1
 627 396 l 1
 627 0 l 1
 326 0 l 2
 154 0 25 149 25 316 c 0
 25 484 154 633 326 633 c 2
EndSplineSet
EndChar

StartChar: h
Encoding: 104 104 75
Width: 614
Flags: W
LayerCount: 2
Fore
SplineSet
184 396 m 1
 430 396 l 1
 430 633 l 1
 589 633 l 1
 589 0 l 1
 430 0 l 1
 430 237 l 1
 184 237 l 1
 184 0 l 1
 25 0 l 1
 25 633 l 1
 184 633 l 1
 184 396 l 1
EndSplineSet
EndChar

StartChar: i
Encoding: 105 105 76
Width: 228
Flags: W
LayerCount: 2
Fore
SplineSet
215 557 m 0
 215 501 170 456 114 456 c 0
 58 456 13 501 13 557 c 0
 13 613 58 658 114 658 c 0
 170 658 215 613 215 557 c 0
193 1 m 1
 35 1 l 1
 35 421 l 1
 193 421 l 1
 193 1 l 1
EndSplineSet
EndChar

StartChar: j
Encoding: 106 106 77
Width: 528
Flags: W
LayerCount: 2
Fore
SplineSet
191 215 m 2
 337 633 l 1
 503 633 l 1
 339 162 l 2
 309 75 219 0 124 0 c 2
 25 0 l 1
 25 157 l 1
 124 157 l 2
 164 157 179 180 191 215 c 2
EndSplineSet
EndChar

StartChar: k
Encoding: 107 107 78
Width: 633
Flags: W
LayerCount: 2
Fore
SplineSet
312 337 m 1
 310 327 308 317 308 307 c 0
 308 191 511 159 598 159 c 1
 598 0 l 1
 581 0 l 2
 437 -3 186 83 184 260 c 2
 184 0 l 1
 25 0 l 1
 25 633 l 1
 184 633 l 1
 184 414 l 1
 188 418 l 1
 409 633 l 1
 608 633 l 1
 411 437 l 2
 378 404 344 371 312 337 c 1
EndSplineSet
EndChar

StartChar: l
Encoding: 108 108 79
Width: 528
Flags: W
LayerCount: 2
Fore
SplineSet
191 633 m 1
 336 215 l 2
 349 180 364 157 403 157 c 2
 503 157 l 1
 503 0 l 1
 403 0 l 2
 309 0 219 75 189 162 c 2
 25 633 l 1
 191 633 l 1
EndSplineSet
EndChar

StartChar: m
Encoding: 109 109 80
Width: 925
Flags: W
LayerCount: 2
Fore
SplineSet
641 650 m 0
 784 650 900 534 900 391 c 2
 900 0 l 1
 741 0 l 1
 741 391 l 2
 741 446 696 491 641 491 c 0
 586 491 542 446 542 391 c 2
 542 0 l 1
 383 0 l 1
 383 391 l 2
 383 446 338 491 283 491 c 0
 228 491 184 446 184 391 c 2
 184 0 l 1
 25 0 l 1
 25 391 l 2
 25 534 141 650 283 650 c 0
 353 650 416 622 462 577 c 1
 509 622 572 650 641 650 c 0
EndSplineSet
EndChar

StartChar: n
Encoding: 110 110 81
Width: 648
Flags: W
LayerCount: 2
Fore
SplineSet
324 649 m 0
 495 649 623 501 623 334 c 2
 623 0 l 1
 466 0 l 1
 466 334 l 2
 466 414 408 491 324 491 c 0
 240 491 182 414 182 334 c 2
 182 0 l 1
 25 0 l 1
 25 334 l 2
 25 501 153 649 324 649 c 0
EndSplineSet
EndChar

StartChar: o
Encoding: 111 111 82
Width: 701
Flags: W
LayerCount: 2
Fore
SplineSet
351 647 m 0
 534 647 676 494 676 313 c 0
 676 133 534 -21 351 -21 c 0
 168 -21 25 133 25 313 c 0
 25 494 168 647 351 647 c 0
351 137 m 0
 447 137 519 220 519 313 c 0
 519 407 447 490 351 490 c 0
 255 490 182 407 182 313 c 0
 182 220 254 137 351 137 c 0
EndSplineSet
EndChar

StartChar: p
Encoding: 112 112 83
Width: 638
Flags: W
LayerCount: 2
Fore
SplineSet
376 628 m 2
 512 628 613 512 613 380 c 0
 613 248 512 133 376 133 c 2
 182 133 l 1
 182 0 l 1
 25 0 l 1
 25 628 l 1
 376 628 l 2
376 290 m 2
 424 290 456 336 456 380 c 0
 456 424 424 471 376 471 c 2
 182 471 l 1
 182 290 l 1
 376 290 l 2
EndSplineSet
EndChar

StartChar: q
Encoding: 113 113 84
Width: 701
Flags: W
LayerCount: 2
Fore
SplineSet
351 647 m 0
 534 647 676 493 676 313 c 0
 676 162 576 27 430 -11 c 1
 418 -146 333 -238 193 -238 c 1
 193 -81 l 1
 243 -81 264 -59 271 -11 c 1
 125 27 25 162 25 313 c 0
 25 493 168 647 351 647 c 0
351 136 m 0
 447 136 519 219 519 313 c 0
 519 406 447 489 351 489 c 0
 255 489 182 406 182 313 c 0
 182 219 255 136 351 136 c 0
EndSplineSet
EndChar

StartChar: r
Encoding: 114 114 85
Width: 528
Flags: W
LayerCount: 2
Fore
SplineSet
336 418 m 2
 191 0 l 1
 25 0 l 1
 189 471 l 2
 219 558 309 633 403 633 c 2
 503 633 l 1
 503 476 l 1
 403 476 l 2
 364 476 349 453 336 418 c 2
EndSplineSet
EndChar

StartChar: s
Encoding: 115 115 86
Width: 645
Flags: W
LayerCount: 2
Fore
SplineSet
25 157 m 1
 125 157 l 2
 151 157 184 194 192 216 c 2
 286 467 l 2
 319 556 414 628 510 628 c 2
 620 628 l 1
 620 471 l 1
 510 471 l 2
 480 471 443 439 433 412 c 2
 340 161 l 2
 308 76 219 0 125 0 c 2
 25 0 l 1
 25 157 l 1
EndSplineSet
EndChar

StartChar: t
Encoding: 116 116 87
Width: 528
Flags: W
LayerCount: 2
Fore
SplineSet
224 539 m 1
 392 539 l 1
 392 380 l 1
 279 380 l 1
 336 215 l 2
 349 180 364 157 403 157 c 2
 503 157 l 1
 503 0 l 1
 403 0 l 2
 309 0 219 75 189 162 c 2
 25 633 l 1
 191 633 l 1
 224 539 l 1
EndSplineSet
EndChar

StartChar: u
Encoding: 117 117 88
Width: 648
Flags: W
LayerCount: 2
Fore
SplineSet
324 143 m 0
 408 143 466 220 466 299 c 2
 466 629 l 1
 623 629 l 1
 623 299 l 2
 623 133 495 -15 324 -15 c 0
 153 -15 25 133 25 299 c 2
 25 629 l 1
 182 629 l 1
 182 299 l 2
 182 220 240 143 324 143 c 0
EndSplineSet
EndChar

StartChar: v
Encoding: 118 118 89
Width: 707
Flags: W
LayerCount: 2
Fore
SplineSet
357 226 m 1
 513 634 l 1
 682 634 l 1
 473 83 l 2
 454 34 416 -11 359 -11 c 0
 302 -11 264 31 244 81 c 2
 25 634 l 1
 196 634 l 1
 357 226 l 1
EndSplineSet
EndChar

StartChar: w
Encoding: 119 119 90
Width: 925
Flags: W
LayerCount: 2
Fore
SplineSet
641 142 m 0
 696 142 741 187 741 242 c 2
 741 634 l 1
 900 634 l 1
 900 242 l 2
 900 100 784 -16 641 -16 c 0
 575 -16 510 10 462 56 c 1
 414 10 350 -16 283 -16 c 0
 141 -16 25 100 25 242 c 2
 25 634 l 1
 184 634 l 1
 184 242 l 2
 184 187 228 142 283 142 c 0
 338 142 383 187 383 242 c 2
 383 634 l 1
 542 634 l 1
 542 242 l 2
 542 187 586 142 641 142 c 0
EndSplineSet
EndChar

StartChar: x
Encoding: 120 120 91
Width: 631
Flags: W
LayerCount: 2
Fore
SplineSet
316 489 m 1
 382 581 493 632 606 632 c 1
 606 474 l 1
 519 474 418 413 418 316 c 0
 418 219 519 159 606 159 c 1
 606 0 l 1
 493 0 382 51 316 143 c 1
 249 51 138 0 25 0 c 1
 25 159 l 1
 113 159 214 219 214 316 c 0
 214 413 113 474 25 474 c 1
 25 632 l 1
 138 632 249 581 316 489 c 1
EndSplineSet
EndChar

StartChar: y
Encoding: 121 121 92
Width: 642
Flags: W
LayerCount: 2
Fore
SplineSet
436 633 m 1
 617 633 l 1
 480 376 l 2
 446 314 414 250 378 189 c 2
 373 181 l 1
 349 138 l 2
 305 59 205 0 115 0 c 2
 25 0 l 1
 25 159 l 1
 115 159 l 2
 146 159 185 182 204 206 c 1
 19 633 l 1
 192 633 l 1
 301 381 l 1
 348 464 436 633 436 633 c 1
EndSplineSet
EndChar

StartChar: z
Encoding: 122 122 93
Width: 627
Flags: W
LayerCount: 2
Fore
SplineSet
602 518 m 0
 602 475 577 439 546 412 c 2
 252 159 l 1
 597 159 l 1
 597 0 l 1
 177 0 l 2
 105 0 25 32 25 115 c 0
 25 157 50 193 81 220 c 2
 375 474 l 1
 30 474 l 1
 30 633 l 1
 451 633 l 2
 523 633 602 601 602 518 c 0
EndSplineSet
EndChar

StartChar: braceleft
Encoding: 123 123 94
Width: 386
Flags: W
LayerCount: 2
Fore
SplineSet
259 163 m 1
 361 163 l 1
 361 4 l 1
 225 4 l 2
 157 4 100 59 100 127 c 2
 100 218 l 2
 100 231 89 246 74 246 c 2
 25 246 l 1
 25 394 l 1
 74 394 l 2
 89 394 100 410 100 423 c 2
 100 513 l 2
 100 582 157 636 225 636 c 2
 361 636 l 1
 361 478 l 1
 259 478 l 1
 259 163 l 1
EndSplineSet
EndChar

StartChar: bar
Encoding: 124 124 95
Width: 209
Flags: W
LayerCount: 2
Fore
SplineSet
25 673 m 1
 184 673 l 1
 184 -40 l 1
 25 -40 l 1
 25 673 l 1
EndSplineSet
EndChar

StartChar: braceright
Encoding: 125 125 96
Width: 386
Flags: W
LayerCount: 2
Fore
SplineSet
25 163 m 1
 127 163 l 1
 127 478 l 1
 25 478 l 1
 25 636 l 1
 161 636 l 2
 229 636 286 582 286 513 c 2
 286 423 l 2
 286 410 297 394 312 394 c 2
 361 394 l 1
 361 246 l 1
 312 246 l 2
 297 246 286 231 286 218 c 2
 286 127 l 2
 286 59 229 4 161 4 c 2
 25 4 l 1
 25 163 l 1
EndSplineSet
EndChar

StartChar: asciitilde
Encoding: 126 126 97
Width: 394
Flags: W
LayerCount: 2
Fore
SplineSet
309 376 m 1
 369 336 l 1
 341 278 306 250 264 250 c 0
 242 250 218 261 189 281 c 0
 161 302 141 313 131 313 c 0
 117 313 103 300 88 275 c 1
 25 311 l 1
 50 372 86 403 131 403 c 0
 152 403 177 392 207 370 c 0
 237 349 256 338 263 338 c 0
 280 338 295 350 309 376 c 1
EndSplineSet
EndChar

StartChar: exclamdown
Encoding: 161 161 99
Width: 252
Flags: W
LayerCount: 2
Fore
SplineSet
26 -23 m 1
 42 372 l 1
 200 372 l 1
 216 -23 l 1
 26 -23 l 1
126 414 m 0
 70 414 25 460 25 516 c 0
 25 571 70 617 126 617 c 0
 182 617 227 571 227 516 c 0
 227 460 182 414 126 414 c 0
EndSplineSet
EndChar

StartChar: cent
Encoding: 162 162 100
Width: 374
Flags: W
LayerCount: 2
Fore
SplineSet
285 627 m 1
 285 534 l 1
 349 534 l 1
 349 423 l 1
 215 423 l 2
 168 423 136 379 136 335 c 0
 136 291 168 247 215 247 c 2
 349 247 l 1
 349 136 l 1
 285 136 l 1
 285 6 l 1
 174 6 l 1
 174 141 l 1
 85 161 25 245 25 335 c 0
 25 425 85 509 174 529 c 1
 174 627 l 1
 285 627 l 1
EndSplineSet
EndChar

StartChar: sterling
Encoding: 163 163 101
Width: 649
Flags: W
LayerCount: 2
Fore
SplineSet
138 0 m 1
 126 0 l 1
 25 0 l 1
 25 159 l 1
 126 159 l 2
 144 159 181 184 194 218 c 2
 288 470 l 2
 322 563 419 633 514 633 c 2
 624 633 l 1
 624 474 l 1
 514 474 l 2
 489 474 448 447 436 415 c 2
 421 373 l 1
 509 373 l 1
 509 215 l 1
 362 215 l 1
 342 163 l 1
 341 159 l 1
 582 159 l 1
 582 0 l 1
 138 0 l 1
EndSplineSet
EndChar

StartChar: yen
Encoding: 165 165 102
Width: 652
Flags: W
LayerCount: 2
Fore
SplineSet
326 396 m 0
 411 396 469 473 469 553 c 2
 469 633 l 1
 627 633 l 1
 627 553 l 2
 627 420 546 296 419 253 c 1
 528 253 l 1
 528 173 l 1
 405 173 l 1
 405 136 l 1
 528 136 l 1
 528 56 l 1
 405 56 l 1
 405 2 l 1
 247 2 l 1
 247 56 l 1
 124 56 l 1
 124 136 l 1
 247 136 l 1
 247 173 l 1
 124 173 l 1
 124 253 l 1
 233 253 l 1
 106 296 25 420 25 553 c 2
 25 633 l 1
 184 633 l 1
 184 553 l 2
 184 473 242 396 326 396 c 0
EndSplineSet
EndChar

StartChar: brokenbar
Encoding: 166 166 103
Width: 209
Flags: W
LayerCount: 2
Fore
SplineSet
22 384 m 1
 22 664 l 1
 181 664 l 1
 181 384 l 1
 22 384 l 1
28 -40 m 1
 28 240 l 1
 187 240 l 1
 187 -40 l 1
 28 -40 l 1
EndSplineSet
EndChar

StartChar: section
Encoding: 167 167 104
Width: 913
Flags: W
LayerCount: 2
Fore
SplineSet
620 563 m 1
 664 603 721 628 778 628 c 2
 888 628 l 1
 888 471 l 1
 778 471 l 2
 748 471 711 439 701 412 c 2
 608 161 l 2
 576 76 487 0 393 0 c 2
 293 0 l 1
 293 84 l 1
 250 35 189 0 125 0 c 2
 25 0 l 1
 25 157 l 1
 125 157 l 2
 151 157 184 194 192 216 c 2
 286 467 l 2
 319 556 414 628 510 628 c 2
 620 628 l 1
 620 563 l 1
338 157 m 1
 393 157 l 2
 419 157 452 194 460 216 c 2
 554 467 l 1
 555 471 l 1
 510 471 l 2
 480 471 443 439 433 412 c 2
 340 161 l 1
 338 157 l 1
EndSplineSet
EndChar

StartChar: dieresis
Encoding: 168 168 105
Width: 233
Flags: W
LayerCount: 2
Fore
SplineSet
63 622 m 0
 84 622 101 605 101 584 c 0
 101 563 84 546 63 546 c 0
 42 546 25 563 25 584 c 0
 25 605 42 622 63 622 c 0
170 623 m 0
 191 623 208 606 208 585 c 0
 208 564 191 547 170 547 c 0
 149 547 132 564 132 585 c 0
 132 606 149 623 170 623 c 0
EndSplineSet
EndChar

StartChar: copyright
Encoding: 169 169 106
Width: 724
Flags: W
LayerCount: 2
Fore
SplineSet
362 664 m 0
 548 664 699 513 699 327 c 0
 699 142 548 -10 362 -10 c 0
 176 -10 25 141 25 327 c 0
 25 513 176 664 362 664 c 0
362 70 m 0
 504 70 620 185 620 327 c 0
 620 469 504 585 362 585 c 0
 220 585 104 469 104 327 c 0
 104 185 220 70 362 70 c 0
211 327 m 0
 211 411 276 485 362 485 c 2
 473 485 l 1
 473 406 l 1
 362 406 l 2
 320 406 291 367 291 327 c 0
 291 287 320 248 362 248 c 2
 473 248 l 1
 473 169 l 1
 362 169 l 2
 276 169 211 243 211 327 c 0
EndSplineSet
EndChar

StartChar: ordfeminine
Encoding: 170 170 107
Width: 389
Flags: W
LayerCount: 2
Fore
SplineSet
120 417 m 2
 112 417 104 409 104 401 c 0
 104 390 106 377 120 377 c 2
 231 377 l 1
 231 298 l 1
 120 298 l 2
 68 298 25 341 25 393 c 2
 25 401 l 2
 25 453 68 496 120 496 c 2
 211 496 l 1
 204 516 198 535 174 535 c 2
 26 535 l 1
 26 614 l 1
 174 614 l 2
 221 614 267 576 282 532 c 2
 364 298 l 1
 280 298 l 1
 239 417 l 1
 120 417 l 2
EndSplineSet
EndChar

StartChar: guillemotleft
Encoding: 171 171 108
Width: 542
Flags: W
LayerCount: 2
Fore
SplineSet
257 633 m 1
 193 402 l 2
 185 375 184 345 184 316 c 0
 184 288 185 258 193 231 c 2
 257 0 l 1
 92 0 l 1
 40 188 l 2
 29 229 25 274 25 316 c 0
 25 359 29 403 40 444 c 2
 92 633 l 1
 257 633 l 1
517 633 m 1
 453 402 l 2
 445 375 444 345 444 316 c 0
 444 288 445 258 453 231 c 2
 517 0 l 1
 352 0 l 1
 300 188 l 2
 289 229 285 274 285 316 c 0
 285 359 289 403 300 444 c 2
 352 633 l 1
 517 633 l 1
EndSplineSet
EndChar

StartChar: logicalnot
Encoding: 172 172 109
Width: 563
Flags: W
LayerCount: 2
Fore
SplineSet
347 239 m 2
 25 239 l 1
 25 397 l 1
 347 397 l 2
 452 397 538 312 538 207 c 2
 538 66 l 1
 379 66 l 1
 379 207 l 2
 379 224 364 239 347 239 c 2
EndSplineSet
EndChar

StartChar: uni00AD
Encoding: 173 173 110
Width: 410
Flags: W
LayerCount: 2
Fore
SplineSet
25 396 m 1
 385 396 l 1
 385 237 l 1
 25 237 l 1
 25 396 l 1
EndSplineSet
EndChar

StartChar: registered
Encoding: 174 174 111
Width: 274
Flags: W
LayerCount: 2
Fore
SplineSet
137 633 m 0
 199 633 249 582 249 520 c 0
 249 459 199 408 137 408 c 0
 75 408 25 459 25 520 c 0
 25 582 75 633 137 633 c 0
137 424 m 0
 190 424 234 467 234 520 c 0
 234 573 190 617 137 617 c 0
 84 617 41 573 41 520 c 0
 41 467 84 424 137 424 c 0
133 511 m 1
 140 486 173 479 195 479 c 1
 195 463 l 1
 156 463 131 475 117 511 c 1
 102 511 l 1
 102 464 l 1
 86 464 l 1
 86 575 l 1
 160 575 l 2
 177 575 191 561 191 545 c 0
 191 508 160 511 133 511 c 1
102 527 m 1
 160 527 l 2
 168 527 175 534 175 542 c 0
 175 551 171 559 160 559 c 2
 102 559 l 1
 102 527 l 1
EndSplineSet
EndChar

StartChar: macron
Encoding: 175 175 112
Width: 410
Flags: W
LayerCount: 2
Fore
SplineSet
64 678 m 1
 333 678 l 1
 333 624 l 1
 64 624 l 1
 64 678 l 1
EndSplineSet
EndChar

StartChar: degree
Encoding: 176 176 113
Width: 224
Flags: W
LayerCount: 2
Fore
SplineSet
112 664 m 0
 160 664 199 625 199 578 c 0
 199 530 160 491 112 491 c 0
 64 491 25 530 25 578 c 0
 25 625 64 664 112 664 c 0
112 538 m 0
 133 538 151 556 151 578 c 0
 151 599 133 617 112 617 c 0
 90 617 73 599 73 578 c 0
 73 556 90 538 112 538 c 0
EndSplineSet
EndChar

StartChar: plusminus
Encoding: 177 177 114
Width: 701
Flags: W
LayerCount: 2
Fore
SplineSet
350 642 m 0
 399 642 438 605 438 555 c 0
 438 552 438 549 437 546 c 2
 422 403 l 1
 553 462 l 2
 564 467 577 470 589 470 c 0
 638 470 676 429 676 381 c 0
 676 339 647 305 606 296 c 2
 466 267 l 1
 562 161 l 2
 577 145 585 124 585 102 c 0
 585 54 544 14 496 14 c 0
 465 14 437 32 422 59 c 2
 350 183 l 1
 279 58 l 2
 264 32 235 14 204 14 c 0
 157 14 115 54 115 102 c 0
 115 124 124 145 138 161 c 2
 235 267 l 1
 94 296 l 2
 54 305 25 339 25 380 c 0
 25 429 62 470 112 470 c 0
 124 470 137 467 148 462 c 2
 279 403 l 1
 263 546 l 1
 263 555 l 2
 263 604 301 642 350 642 c 0
EndSplineSet
EndChar

StartChar: twosuperior
Encoding: 178 178 115
Width: 351
Flags: W
LayerCount: 2
Fore
SplineSet
231 629 m 2
 283 629 326 587 326 534 c 2
 326 527 l 2
 326 474 283 432 231 432 c 2
 120 432 l 2
 115 432 109 431 104 429 c 1
 104 392 l 1
 306 392 l 1
 306 313 l 1
 25 313 l 1
 25 440 l 2
 25 489 78 511 120 511 c 2
 231 511 l 2
 240 511 247 518 247 527 c 0
 247 538 245 550 231 550 c 2
 45 550 l 1
 45 629 l 1
 231 629 l 2
EndSplineSet
EndChar

StartChar: threesuperior
Encoding: 179 179 116
Width: 331
Flags: W
LayerCount: 2
Fore
SplineSet
211 629 m 2
 264 629 306 587 306 534 c 0
 306 510 303 491 288 471 c 1
 300 455 306 436 306 416 c 2
 306 408 l 2
 306 356 264 313 211 313 c 2
 33 313 l 1
 33 392 l 1
 211 392 l 2
 220 392 227 400 227 408 c 0
 227 419 226 432 211 432 c 2
 132 432 l 1
 132 511 l 1
 211 511 l 2
 220 511 227 518 227 527 c 0
 227 538 226 550 211 550 c 2
 25 550 l 1
 25 629 l 1
 211 629 l 2
EndSplineSet
EndChar

StartChar: acute
Encoding: 180 180 117
Width: 227
Flags: W
LayerCount: 2
Fore
SplineSet
25 542 m 1
 99 608 l 1
 202 608 l 1
 95 542 l 1
 25 542 l 1
EndSplineSet
EndChar

StartChar: mu
Encoding: 181 181 118
Width: 701
Flags: W
LayerCount: 2
Fore
SplineSet
350 642 m 0
 399 642 438 605 438 555 c 0
 438 552 438 549 437 546 c 2
 422 403 l 1
 553 462 l 2
 564 467 577 470 589 470 c 0
 638 470 676 429 676 381 c 0
 676 339 647 305 606 296 c 2
 466 267 l 1
 562 161 l 2
 577 145 585 124 585 102 c 0
 585 54 544 14 496 14 c 0
 465 14 437 32 422 59 c 2
 350 183 l 1
 279 58 l 2
 264 32 235 14 204 14 c 0
 157 14 115 54 115 102 c 0
 115 124 124 145 138 161 c 2
 235 267 l 1
 94 296 l 2
 54 305 25 339 25 380 c 0
 25 429 62 470 112 470 c 0
 124 470 137 467 148 462 c 2
 279 403 l 1
 263 546 l 1
 263 555 l 2
 263 604 301 642 350 642 c 0
EndSplineSet
EndChar

StartChar: paragraph
Encoding: 182 182 119
Width: 484
Flags: W
LayerCount: 2
Fore
SplineSet
264 633 m 2
 459 633 l 1
 459 0 l 1
 300 0 l 1
 300 133 l 1
 264 133 l 2
 128 133 25 250 25 383 c 0
 25 516 128 633 264 633 c 2
264 292 m 2
 300 292 l 1
 300 474 l 1
 264 474 l 2
 216 474 184 427 184 383 c 0
 184 339 216 292 264 292 c 2
EndSplineSet
EndChar

StartChar: periodcentered
Encoding: 183 183 120
Width: 252
Flags: W
LayerCount: 2
Fore
SplineSet
126 406 m 0
 182 406 227 361 227 305 c 0
 227 249 182 204 126 204 c 0
 70 204 25 249 25 305 c 0
 25 361 70 406 126 406 c 0
EndSplineSet
EndChar

StartChar: cedilla
Encoding: 184 184 121
Width: 236
Flags: W
LayerCount: 2
Fore
SplineSet
106 11 m 1
 157 11 l 1
 136 -41 l 1
 181 -50 211 -91 211 -136 c 0
 211 -187 172 -233 119 -233 c 2
 25 -233 l 1
 45 -185 l 1
 119 -185 l 2
 145 -185 163 -161 163 -136 c 0
 163 -77 105 -87 66 -87 c 1
 106 11 l 1
EndSplineSet
EndChar

StartChar: onesuperior
Encoding: 185 185 122
Width: 291
Flags: W
LayerCount: 2
Fore
SplineSet
183 313 m 1
 108 522 l 2
 102 540 94 551 75 551 c 2
 25 551 l 1
 25 630 l 1
 75 630 l 2
 122 630 166 592 182 549 c 2
 266 313 l 1
 183 313 l 1
EndSplineSet
EndChar

StartChar: ordmasculine
Encoding: 186 186 123
Width: 376
Flags: W
LayerCount: 2
Fore
SplineSet
188 620 m 0
 279 620 351 544 351 453 c 0
 351 363 279 286 188 286 c 0
 96 286 25 363 25 453 c 0
 25 544 96 620 188 620 c 0
188 365 m 0
 236 365 272 406 272 453 c 0
 272 500 236 541 188 541 c 0
 140 541 104 500 104 453 c 0
 104 406 140 365 188 365 c 0
EndSplineSet
EndChar

StartChar: guillemotright
Encoding: 187 187 124
Width: 542
Flags: W
LayerCount: 2
Fore
SplineSet
349 402 m 2
 285 633 l 1
 450 633 l 1
 502 444 l 2
 513 403 517 359 517 316 c 0
 517 274 513 229 502 188 c 2
 450 0 l 1
 285 0 l 1
 349 231 l 2
 357 258 358 288 358 316 c 0
 358 345 357 375 349 402 c 2
89 402 m 2
 25 633 l 1
 190 633 l 1
 242 444 l 2
 253 403 257 359 257 316 c 0
 257 274 253 229 242 188 c 2
 190 0 l 1
 25 0 l 1
 89 231 l 2
 97 258 98 288 98 316 c 0
 98 345 97 375 89 402 c 2
EndSplineSet
EndChar

StartChar: onequarter
Encoding: 188 188 125
Width: 722
Flags: W
LayerCount: 2
Fore
SplineSet
183 255 m 1
 108 463 l 2
 102 481 94 493 75 493 c 2
 25 493 l 1
 25 571 l 1
 75 571 l 2
 122 571 166 533 182 490 c 2
 266 255 l 1
 183 255 l 1
623 140 m 1
 697 140 l 1
 697 60 l 1
 623 60 l 1
 623 0 l 1
 544 0 l 1
 544 60 l 1
 449 60 l 2
 412 60 377 82 377 122 c 0
 377 139 384 155 395 169 c 2
 506 316 l 1
 623 316 l 1
 623 140 l 1
544 140 m 1
 544 234 l 1
 472 140 l 1
 544 140 l 1
115 0 m 1
 500 577 l 1
 585 577 l 1
 199 0 l 1
 115 0 l 1
EndSplineSet
EndChar

StartChar: onehalf
Encoding: 189 189 126
Width: 760
Flags: W
LayerCount: 2
Fore
SplineSet
183 255 m 1
 108 463 l 2
 102 481 94 493 75 493 c 2
 25 493 l 1
 25 571 l 1
 75 571 l 2
 122 571 166 533 182 490 c 2
 266 255 l 1
 183 255 l 1
640 316 m 2
 692 316 735 274 735 221 c 2
 735 214 l 2
 735 161 692 118 640 118 c 2
 529 118 l 2
 524 118 518 118 513 116 c 1
 513 79 l 1
 715 79 l 1
 715 0 l 1
 434 0 l 1
 434 126 l 2
 434 175 487 198 529 198 c 2
 640 198 l 2
 648 198 656 205 656 214 c 0
 656 224 654 237 640 237 c 2
 454 237 l 1
 454 316 l 1
 640 316 l 2
115 0 m 1
 500 577 l 1
 585 577 l 1
 199 0 l 1
 115 0 l 1
EndSplineSet
EndChar

StartChar: threequarters
Encoding: 190 190 127
Width: 757
Flags: W
LayerCount: 2
Fore
SplineSet
658 140 m 1
 732 140 l 1
 732 60 l 1
 658 60 l 1
 658 0 l 1
 579 0 l 1
 579 60 l 1
 484 60 l 2
 447 60 412 82 412 122 c 0
 412 139 419 155 430 169 c 2
 541 316 l 1
 658 316 l 1
 658 140 l 1
579 140 m 1
 579 234 l 1
 507 140 l 1
 579 140 l 1
211 576 m 2
 264 576 306 534 306 481 c 0
 306 457 303 438 288 418 c 1
 300 402 306 382 306 363 c 2
 306 355 l 2
 306 303 264 260 211 260 c 2
 33 260 l 1
 33 339 l 1
 211 339 l 2
 220 339 227 347 227 355 c 0
 227 366 226 378 211 378 c 2
 132 378 l 1
 132 458 l 1
 211 458 l 2
 220 458 227 465 227 474 c 0
 227 485 226 497 211 497 c 2
 25 497 l 1
 25 576 l 1
 211 576 l 2
150 0 m 1
 535 577 l 1
 620 577 l 1
 234 0 l 1
 150 0 l 1
EndSplineSet
EndChar

StartChar: questiondown
Encoding: 191 191 128
Width: 429
Flags: W
LayerCount: 2
Fore
SplineSet
123 539 m 0
 123 595 169 640 225 640 c 0
 280 640 326 595 326 539 c 0
 326 484 280 438 225 438 c 0
 169 438 123 484 123 539 c 0
177 0 m 2
 95 0 25 53 25 139 c 0
 25 165 32 191 43 214 c 2
 136 406 l 1
 313 406 l 1
 193 159 l 1
 404 159 l 1
 404 0 l 1
 177 0 l 2
EndSplineSet
EndChar

StartChar: Agrave
Encoding: 192 192 129
Width: 652
Flags: W
LayerCount: 2
Fore
SplineSet
326 648 m 0
 492 648 627 507 627 332 c 2
 627 0 l 1
 469 0 l 1
 469 143 l 1
 184 143 l 1
 184 0 l 1
 25 0 l 1
 25 332 l 2
 25 507 160 648 326 648 c 0
184 332 m 2
 184 301 l 1
 469 301 l 1
 469 332 l 2
 469 419 405 490 326 490 c 0
 248 490 184 419 184 332 c 2
308 747 m 1
 382 681 l 1
 312 681 l 1
 205 747 l 1
 308 747 l 1
EndSplineSet
EndChar

StartChar: Aacute
Encoding: 193 193 130
Width: 652
Flags: W
LayerCount: 2
Fore
SplineSet
326 648 m 0
 492 648 627 507 627 332 c 2
 627 0 l 1
 469 0 l 1
 469 143 l 1
 184 143 l 1
 184 0 l 1
 25 0 l 1
 25 332 l 2
 25 507 160 648 326 648 c 0
184 332 m 2
 184 301 l 1
 469 301 l 1
 469 332 l 2
 469 419 405 490 326 490 c 0
 248 490 184 419 184 332 c 2
274 679 m 1
 348 745 l 1
 451 745 l 1
 344 679 l 1
 274 679 l 1
EndSplineSet
EndChar

StartChar: Acircumflex
Encoding: 194 194 131
Width: 652
Flags: W
LayerCount: 2
Fore
SplineSet
320 720 m 1
 308 706 300 689 288 675 c 1
 234 675 l 1
 283 732 l 2
 292 742 307 745 320 745 c 0
 333 745 348 742 356 731 c 2
 404 675 l 1
 350 675 l 1
 338 689 331 706 320 720 c 1
326 648 m 0
 492 648 627 507 627 332 c 2
 627 0 l 1
 469 0 l 1
 469 143 l 1
 184 143 l 1
 184 0 l 1
 25 0 l 1
 25 332 l 2
 25 507 160 648 326 648 c 0
184 332 m 2
 184 301 l 1
 469 301 l 1
 469 332 l 2
 469 419 405 490 326 490 c 0
 248 490 184 419 184 332 c 2
EndSplineSet
EndChar

StartChar: Atilde
Encoding: 195 195 132
Width: 652
Flags: W
LayerCount: 2
Fore
SplineSet
326 648 m 0
 492 648 627 507 627 332 c 2
 627 0 l 1
 469 0 l 1
 469 143 l 1
 184 143 l 1
 184 0 l 1
 25 0 l 1
 25 332 l 2
 25 507 160 648 326 648 c 0
184 332 m 2
 184 301 l 1
 469 301 l 1
 469 332 l 2
 469 419 405 490 326 490 c 0
 248 490 184 419 184 332 c 2
377 734 m 1
 404 716 l 1
 391 691 376 678 357 678 c 0
 348 678 337 683 324 692 c 0
 311 701 303 706 298 706 c 0
 292 706 286 700 279 689 c 1
 251 705 l 1
 262 732 278 746 298 746 c 0
 307 746 319 741 332 732 c 0
 345 722 354 717 357 717 c 0
 364 717 371 723 377 734 c 1
EndSplineSet
EndChar

StartChar: Adieresis
Encoding: 196 196 133
Width: 652
Flags: W
LayerCount: 2
Fore
SplineSet
326 648 m 0
 492 648 627 507 627 332 c 2
 627 0 l 1
 469 0 l 1
 469 143 l 1
 184 143 l 1
 184 0 l 1
 25 0 l 1
 25 332 l 2
 25 507 160 648 326 648 c 0
184 332 m 2
 184 301 l 1
 469 301 l 1
 469 332 l 2
 469 419 405 490 326 490 c 0
 248 490 184 419 184 332 c 2
273 745 m 0
 294 745 311 728 311 707 c 0
 311 686 294 669 273 669 c 0
 252 669 235 686 235 707 c 0
 235 728 252 745 273 745 c 0
380 746 m 0
 401 746 418 729 418 708 c 0
 418 687 401 670 380 670 c 0
 359 670 342 687 342 708 c 0
 342 729 359 746 380 746 c 0
EndSplineSet
EndChar

StartChar: Aring
Encoding: 197 197 134
Width: 652
Flags: W
LayerCount: 2
Fore
SplineSet
332 747 m 0
 370 747 401 716 401 678 c 0
 401 664 397 651 390 640 c 1
 525 609 627 483 627 332 c 2
 627 0 l 1
 469 0 l 1
 469 143 l 1
 184 143 l 1
 184 0 l 1
 25 0 l 1
 25 332 l 2
 25 487 131 616 271 643 c 1
 265 653 262 665 262 678 c 0
 262 716 294 747 332 747 c 0
184 332 m 2
 184 301 l 1
 469 301 l 1
 469 332 l 2
 469 419 405 490 326 490 c 0
 248 490 184 419 184 332 c 2
326 648 m 2
 331 648 336 648 341 647 c 0
 354 651 363 663 363 678 c 0
 363 695 349 709 332 709 c 0
 315 709 300 695 300 678 c 0
 300 664 309 652 321 648 c 1
 326 648 l 2
EndSplineSet
EndChar

StartChar: AE
Encoding: 198 198 135
Width: 1060
Flags: W
LayerCount: 2
Fore
SplineSet
184 301 m 1
 469 301 l 1
 469 332 l 2
 469 419 405 490 326 490 c 0
 248 490 184 419 184 332 c 2
 184 301 l 1
774 633 m 2
 1035 633 l 1
 1035 474 l 1
 774 474 l 2
 722 474 676 442 651 396 c 1
 917 396 l 1
 917 237 l 1
 651 237 l 1
 676 190 722 159 774 159 c 2
 1035 159 l 1
 1035 0 l 1
 774 0 l 2
 721 0 671 15 627 40 c 1
 627 0 l 1
 469 0 l 1
 469 143 l 1
 184 143 l 1
 184 0 l 1
 25 0 l 1
 25 332 l 2
 25 507 160 648 326 648 c 0
 419 648 502 604 557 535 c 1
 612 595 689 633 774 633 c 2
EndSplineSet
EndChar

StartChar: Ccedilla
Encoding: 199 199 136
Width: 573
Flags: W
LayerCount: 2
Fore
SplineSet
436 -143 m 0
 436 -194 396 -240 344 -240 c 2
 250 -240 l 1
 270 -192 l 1
 344 -192 l 2
 370 -192 388 -168 388 -143 c 0
 388 -84 330 -94 291 -94 c 1
 329 0 l 1
 326 0 l 2
 160 0 25 142 25 316 c 0
 25 491 160 633 326 633 c 2
 548 633 l 1
 548 474 l 1
 326 474 l 2
 248 474 184 403 184 316 c 0
 184 229 248 159 326 159 c 2
 548 159 l 1
 548 0 l 1
 381 0 l 1
 361 -48 l 1
 406 -57 436 -98 436 -143 c 0
EndSplineSet
EndChar

StartChar: Egrave
Encoding: 200 200 137
Width: 613
Flags: W
LayerCount: 2
Fore
SplineSet
326 633 m 2
 588 633 l 1
 588 474 l 1
 326 474 l 2
 273 474 227 441 203 396 c 1
 469 396 l 1
 469 237 l 1
 203 237 l 1
 227 191 273 159 326 159 c 2
 588 159 l 1
 588 0 l 1
 326 0 l 2
 154 0 25 149 25 316 c 0
 25 484 154 633 326 633 c 2
428 740 m 1
 502 674 l 1
 432 674 l 1
 325 740 l 1
 428 740 l 1
EndSplineSet
EndChar

StartChar: Eacute
Encoding: 201 201 138
Width: 613
Flags: W
LayerCount: 2
Fore
SplineSet
326 633 m 2
 588 633 l 1
 588 474 l 1
 326 474 l 2
 273 474 227 441 203 396 c 1
 469 396 l 1
 469 237 l 1
 203 237 l 1
 227 191 273 159 326 159 c 2
 588 159 l 1
 588 0 l 1
 326 0 l 2
 154 0 25 149 25 316 c 0
 25 484 154 633 326 633 c 2
305 679 m 1
 379 745 l 1
 482 745 l 1
 375 679 l 1
 305 679 l 1
EndSplineSet
EndChar

StartChar: Ecircumflex
Encoding: 202 202 139
Width: 613
Flags: W
LayerCount: 2
Fore
SplineSet
326 633 m 2
 588 633 l 1
 588 474 l 1
 326 474 l 2
 273 474 227 441 203 396 c 1
 469 396 l 1
 469 237 l 1
 203 237 l 1
 227 191 273 159 326 159 c 2
 588 159 l 1
 588 0 l 1
 326 0 l 2
 154 0 25 149 25 316 c 0
 25 484 154 633 326 633 c 2
366 718 m 1
 354 704 346 687 334 673 c 1
 280 673 l 1
 329 730 l 2
 338 740 353 743 366 743 c 0
 379 743 394 740 402 729 c 2
 450 673 l 1
 396 673 l 1
 384 687 377 704 366 718 c 1
EndSplineSet
EndChar

StartChar: Edieresis
Encoding: 203 203 140
Width: 613
Flags: W
LayerCount: 2
Fore
SplineSet
326 633 m 2
 588 633 l 1
 588 474 l 1
 326 474 l 2
 273 474 227 441 203 396 c 1
 469 396 l 1
 469 237 l 1
 203 237 l 1
 227 191 273 159 326 159 c 2
 588 159 l 1
 588 0 l 1
 326 0 l 2
 154 0 25 149 25 316 c 0
 25 484 154 633 326 633 c 2
334 743 m 0
 355 743 372 726 372 705 c 0
 372 684 355 667 334 667 c 0
 313 667 296 684 296 705 c 0
 296 726 313 743 334 743 c 0
441 744 m 0
 462 744 479 727 479 706 c 0
 479 685 462 668 441 668 c 0
 420 668 403 685 403 706 c 0
 403 727 420 744 441 744 c 0
EndSplineSet
EndChar

StartChar: Igrave
Encoding: 204 204 141
Width: 257
Flags: W
LayerCount: 2
Fore
SplineSet
49 633 m 1
 208 633 l 1
 208 0 l 1
 49 0 l 1
 49 633 l 1
139 744 m 1
 213 678 l 1
 143 678 l 1
 36 744 l 1
 139 744 l 1
EndSplineSet
EndChar

StartChar: Iacute
Encoding: 205 205 142
Width: 257
Flags: W
LayerCount: 2
Fore
SplineSet
49 633 m 1
 208 633 l 1
 208 0 l 1
 49 0 l 1
 49 633 l 1
55 678 m 1
 129 744 l 1
 232 744 l 1
 125 678 l 1
 55 678 l 1
EndSplineSet
EndChar

StartChar: Icircumflex
Encoding: 206 206 143
Width: 257
Flags: W
LayerCount: 2
Fore
SplineSet
49 633 m 1
 208 633 l 1
 208 0 l 1
 49 0 l 1
 49 633 l 1
130 721 m 1
 118 707 110 690 98 676 c 1
 44 676 l 1
 93 733 l 2
 102 743 117 746 130 746 c 0
 143 746 158 743 166 732 c 2
 214 676 l 1
 160 676 l 1
 148 690 141 707 130 721 c 1
EndSplineSet
EndChar

StartChar: Idieresis
Encoding: 207 207 144
Width: 257
Flags: W
LayerCount: 2
Fore
SplineSet
49 633 m 1
 208 633 l 1
 208 0 l 1
 49 0 l 1
 49 633 l 1
78 747 m 0
 99 747 116 730 116 709 c 0
 116 688 99 671 78 671 c 0
 57 671 40 688 40 709 c 0
 40 730 57 747 78 747 c 0
185 748 m 0
 206 748 223 731 223 710 c 0
 223 689 206 672 185 672 c 0
 164 672 147 689 147 710 c 0
 147 731 164 748 185 748 c 0
EndSplineSet
EndChar

StartChar: Eth
Encoding: 208 208 145
Width: 645
Flags: W
LayerCount: 2
Fore
SplineSet
221 239 m 1
 221 159 l 1
 319 159 l 2
 397 159 461 229 461 316 c 0
 461 403 397 474 319 474 c 2
 221 474 l 1
 221 398 l 1
 340 398 l 1
 340 239 l 1
 221 239 l 1
25 398 m 1
 63 398 l 1
 63 633 l 1
 319 633 l 2
 485 633 620 491 620 316 c 0
 620 142 485 0 319 0 c 2
 63 0 l 1
 63 239 l 1
 25 239 l 1
 25 398 l 1
EndSplineSet
EndChar

StartChar: Ntilde
Encoding: 209 209 146
Width: 648
Flags: W
LayerCount: 2
Fore
SplineSet
324 649 m 0
 495 649 623 501 623 334 c 2
 623 0 l 1
 466 0 l 1
 466 334 l 2
 466 414 408 491 324 491 c 0
 240 491 182 414 182 334 c 2
 182 0 l 1
 25 0 l 1
 25 334 l 2
 25 501 153 649 324 649 c 0
367 731 m 1
 394 713 l 1
 381 688 366 675 347 675 c 0
 338 675 327 680 314 689 c 0
 301 698 293 703 288 703 c 0
 282 703 276 697 269 686 c 1
 241 702 l 1
 252 729 268 743 288 743 c 0
 297 743 309 738 322 729 c 0
 335 719 344 714 347 714 c 0
 354 714 361 720 367 731 c 1
EndSplineSet
EndChar

StartChar: Ograve
Encoding: 210 210 147
Width: 701
Flags: W
LayerCount: 2
Fore
SplineSet
351 647 m 0
 534 647 676 494 676 313 c 0
 676 133 534 -21 351 -21 c 0
 168 -21 25 133 25 313 c 0
 25 494 168 647 351 647 c 0
351 137 m 0
 447 137 519 220 519 313 c 0
 519 407 447 490 351 490 c 0
 255 490 182 407 182 313 c 0
 182 220 254 137 351 137 c 0
340 748 m 1
 414 682 l 1
 344 682 l 1
 237 748 l 1
 340 748 l 1
EndSplineSet
EndChar

StartChar: Oacute
Encoding: 211 211 148
Width: 701
Flags: W
LayerCount: 2
Fore
SplineSet
351 647 m 0
 534 647 676 494 676 313 c 0
 676 133 534 -21 351 -21 c 0
 168 -21 25 133 25 313 c 0
 25 494 168 647 351 647 c 0
351 137 m 0
 447 137 519 220 519 313 c 0
 519 407 447 490 351 490 c 0
 255 490 182 407 182 313 c 0
 182 220 254 137 351 137 c 0
288 680 m 1
 362 746 l 1
 465 746 l 1
 358 680 l 1
 288 680 l 1
EndSplineSet
EndChar

StartChar: Ocircumflex
Encoding: 212 212 149
Width: 701
Flags: W
LayerCount: 2
Fore
SplineSet
351 647 m 0
 534 647 676 494 676 313 c 0
 676 133 534 -21 351 -21 c 0
 168 -21 25 133 25 313 c 0
 25 494 168 647 351 647 c 0
351 137 m 0
 447 137 519 220 519 313 c 0
 519 407 447 490 351 490 c 0
 255 490 182 407 182 313 c 0
 182 220 254 137 351 137 c 0
348 721 m 1
 336 707 328 690 316 676 c 1
 262 676 l 1
 311 733 l 2
 320 743 335 746 348 746 c 0
 361 746 376 743 384 732 c 2
 432 676 l 1
 378 676 l 1
 366 690 359 707 348 721 c 1
EndSplineSet
EndChar

StartChar: Otilde
Encoding: 213 213 150
Width: 701
Flags: W
LayerCount: 2
Fore
SplineSet
351 647 m 0
 534 647 676 494 676 313 c 0
 676 133 534 -21 351 -21 c 0
 168 -21 25 133 25 313 c 0
 25 494 168 647 351 647 c 0
351 137 m 0
 447 137 519 220 519 313 c 0
 519 407 447 490 351 490 c 0
 255 490 182 407 182 313 c 0
 182 220 254 137 351 137 c 0
387 733 m 1
 414 715 l 1
 401 690 386 677 367 677 c 0
 358 677 347 682 334 691 c 0
 321 700 313 705 308 705 c 0
 302 705 296 699 289 688 c 1
 261 704 l 1
 272 731 288 745 308 745 c 0
 317 745 329 740 342 731 c 0
 355 721 364 716 367 716 c 0
 374 716 381 722 387 733 c 1
EndSplineSet
EndChar

StartChar: Odieresis
Encoding: 214 214 151
Width: 701
Flags: W
LayerCount: 2
Fore
SplineSet
351 647 m 0
 534 647 676 494 676 313 c 0
 676 133 534 -21 351 -21 c 0
 168 -21 25 133 25 313 c 0
 25 494 168 647 351 647 c 0
351 137 m 0
 447 137 519 220 519 313 c 0
 519 407 447 490 351 490 c 0
 255 490 182 407 182 313 c 0
 182 220 254 137 351 137 c 0
293 745 m 0
 314 745 331 728 331 707 c 0
 331 686 314 669 293 669 c 0
 272 669 255 686 255 707 c 0
 255 728 272 745 293 745 c 0
400 746 m 0
 421 746 438 729 438 708 c 0
 438 687 421 670 400 670 c 0
 379 670 362 687 362 708 c 0
 362 729 379 746 400 746 c 0
EndSplineSet
EndChar

StartChar: multiply
Encoding: 215 215 152
Width: 558
Flags: W
LayerCount: 2
Fore
SplineSet
155 552 m 1
 279 428 l 1
 402 552 l 1
 514 440 l 1
 391 316 l 1
 514 193 l 1
 402 81 l 1
 279 204 l 1
 155 81 l 1
 43 193 l 1
 167 316 l 1
 43 440 l 1
 155 552 l 1
EndSplineSet
EndChar

StartChar: Oslash
Encoding: 216 216 153
Width: 701
Flags: W
LayerCount: 2
Fore
SplineSet
477 430 m 1
 374 139 l 1
 458 151 519 227 519 313 c 0
 519 357 503 398 477 430 c 1
225 196 m 1
 328 488 l 1
 243 476 182 399 182 313 c 0
 182 269 198 227 225 196 c 1
157 1 m 1
 169 36 l 1
 82 96 25 199 25 313 c 0
 25 494 168 647 351 647 c 0
 385 647 417 642 448 632 c 1
 548 632 l 1
 533 590 l 1
 620 529 676 426 676 313 c 0
 676 133 534 -21 351 -21 c 0
 310 -21 271 -13 235 1 c 1
 157 1 l 1
EndSplineSet
EndChar

StartChar: Ugrave
Encoding: 217 217 154
Width: 648
Flags: W
LayerCount: 2
Fore
SplineSet
324 143 m 0
 408 143 466 220 466 299 c 2
 466 629 l 1
 623 629 l 1
 623 299 l 2
 623 133 495 -15 324 -15 c 0
 153 -15 25 133 25 299 c 2
 25 629 l 1
 182 629 l 1
 182 299 l 2
 182 220 240 143 324 143 c 0
331 748 m 1
 405 682 l 1
 335 682 l 1
 228 748 l 1
 331 748 l 1
EndSplineSet
EndChar

StartChar: Uacute
Encoding: 218 218 155
Width: 648
Flags: W
LayerCount: 2
Fore
SplineSet
324 143 m 0
 408 143 466 220 466 299 c 2
 466 629 l 1
 623 629 l 1
 623 299 l 2
 623 133 495 -15 324 -15 c 0
 153 -15 25 133 25 299 c 2
 25 629 l 1
 182 629 l 1
 182 299 l 2
 182 220 240 143 324 143 c 0
246 677 m 1
 320 743 l 1
 423 743 l 1
 316 677 l 1
 246 677 l 1
EndSplineSet
EndChar

StartChar: Ucircumflex
Encoding: 219 219 156
Width: 648
Flags: W
LayerCount: 2
Fore
SplineSet
324 143 m 0
 408 143 466 220 466 299 c 2
 466 629 l 1
 623 629 l 1
 623 299 l 2
 623 133 495 -15 324 -15 c 0
 153 -15 25 133 25 299 c 2
 25 629 l 1
 182 629 l 1
 182 299 l 2
 182 220 240 143 324 143 c 0
329 718 m 1
 317 704 309 687 297 673 c 1
 243 673 l 1
 292 730 l 2
 301 740 316 743 329 743 c 0
 342 743 357 740 365 729 c 2
 413 673 l 1
 359 673 l 1
 347 687 340 704 329 718 c 1
EndSplineSet
EndChar

StartChar: Udieresis
Encoding: 220 220 157
Width: 648
Flags: W
LayerCount: 2
Fore
SplineSet
324 143 m 0
 408 143 466 220 466 299 c 2
 466 629 l 1
 623 629 l 1
 623 299 l 2
 623 133 495 -15 324 -15 c 0
 153 -15 25 133 25 299 c 2
 25 629 l 1
 182 629 l 1
 182 299 l 2
 182 220 240 143 324 143 c 0
263 743 m 0
 284 743 301 726 301 705 c 0
 301 684 284 667 263 667 c 0
 242 667 225 684 225 705 c 0
 225 726 242 743 263 743 c 0
370 744 m 0
 391 744 408 727 408 706 c 0
 408 685 391 668 370 668 c 0
 349 668 332 685 332 706 c 0
 332 727 349 744 370 744 c 0
EndSplineSet
EndChar

StartChar: Yacute
Encoding: 221 221 158
Width: 642
Flags: W
LayerCount: 2
Fore
SplineSet
436 634 m 1
 617 634 l 1
 480 376 l 2
 446 314 414 250 378 189 c 2
 373 181 l 1
 349 138 l 2
 305 59 205 0 115 0 c 2
 25 0 l 1
 25 159 l 1
 115 159 l 2
 146 159 185 182 204 206 c 1
 19 634 l 1
 192 634 l 1
 301 381 l 1
 348 464 392 549 436 634 c 1
225 652 m 1
 299 718 l 1
 402 718 l 1
 295 652 l 1
 225 652 l 1
EndSplineSet
EndChar

StartChar: Thorn
Encoding: 222 222 159
Width: 643
Flags: W
LayerCount: 2
Fore
SplineSet
184 566 m 1
 379 566 l 2
 515 566 618 449 618 316 c 0
 618 183 515 67 379 67 c 2
 184 67 l 1
 184 0 l 1
 25 0 l 1
 25 633 l 1
 184 633 l 1
 184 566 l 1
379 225 m 2
 427 225 459 272 459 316 c 0
 459 361 427 407 379 407 c 2
 184 407 l 1
 184 225 l 1
 379 225 l 2
EndSplineSet
EndChar

StartChar: germandbls
Encoding: 223 223 160
Width: 652
Flags: W
LayerCount: 2
Fore
SplineSet
437 633 m 2
 542 633 627 547 627 442 c 0
 627 394 620 356 591 316 c 1
 614 284 627 245 627 205 c 2
 627 190 l 2
 627 86 542 0 437 0 c 2
 279 0 l 1
 279 159 l 1
 437 159 l 2
 454 159 469 173 469 190 c 0
 469 212 466 237 437 237 c 2
 184 237 l 1
 184 0 l 1
 25 0 l 1
 25 442 l 2
 25 537 91 633 192 633 c 2
 437 633 l 2
184 396 m 1
 437 396 l 2
 454 396 469 410 469 427 c 2
 469 442 l 2
 469 459 454 474 437 474 c 2
 195 474 l 1
 187 468 184 452 184 442 c 2
 184 396 l 1
EndSplineSet
EndChar

StartChar: agrave
Encoding: 224 224 161
Width: 728
Flags: W
LayerCount: 2
Fore
SplineSet
215 237 m 2
 198 237 184 222 184 205 c 0
 184 184 186 159 215 159 c 2
 437 159 l 1
 437 0 l 1
 215 0 l 2
 111 0 25 86 25 190 c 2
 25 205 l 2
 25 310 111 396 215 396 c 2
 397 396 l 1
 384 436 370 474 322 474 c 2
 79 474 l 1
 79 633 l 1
 322 633 l 2
 418 633 508 556 539 468 c 2
 703 0 l 1
 535 0 l 1
 452 237 l 1
 215 237 l 2
198 747 m 1
 272 681 l 1
 202 681 l 1
 95 747 l 1
 198 747 l 1
EndSplineSet
EndChar

StartChar: aacute
Encoding: 225 225 162
Width: 728
Flags: W
LayerCount: 2
Fore
SplineSet
215 237 m 2
 198 237 184 222 184 205 c 0
 184 184 186 159 215 159 c 2
 437 159 l 1
 437 0 l 1
 215 0 l 2
 111 0 25 86 25 190 c 2
 25 205 l 2
 25 310 111 396 215 396 c 2
 397 396 l 1
 384 436 370 474 322 474 c 2
 79 474 l 1
 79 633 l 1
 322 633 l 2
 418 633 508 556 539 468 c 2
 703 0 l 1
 535 0 l 1
 452 237 l 1
 215 237 l 2
178 679 m 1
 252 745 l 1
 355 745 l 1
 248 679 l 1
 178 679 l 1
EndSplineSet
EndChar

StartChar: acircumflex
Encoding: 226 226 163
Width: 728
Flags: W
LayerCount: 2
Fore
SplineSet
215 237 m 2
 198 237 184 222 184 205 c 0
 184 184 186 159 215 159 c 2
 437 159 l 1
 437 0 l 1
 215 0 l 2
 111 0 25 86 25 190 c 2
 25 205 l 2
 25 310 111 396 215 396 c 2
 397 396 l 1
 384 436 370 474 322 474 c 2
 79 474 l 1
 79 633 l 1
 322 633 l 2
 418 633 508 556 539 468 c 2
 703 0 l 1
 535 0 l 1
 452 237 l 1
 215 237 l 2
212 720 m 1
 200 706 192 689 180 675 c 1
 126 675 l 1
 175 732 l 2
 184 742 199 745 212 745 c 0
 225 745 240 742 248 731 c 2
 296 675 l 1
 242 675 l 1
 230 689 223 706 212 720 c 1
EndSplineSet
EndChar

StartChar: atilde
Encoding: 227 227 164
Width: 728
Flags: W
LayerCount: 2
Fore
SplineSet
215 237 m 2
 198 237 184 222 184 205 c 0
 184 184 186 159 215 159 c 2
 437 159 l 1
 437 0 l 1
 215 0 l 2
 111 0 25 86 25 190 c 2
 25 205 l 2
 25 310 111 396 215 396 c 2
 397 396 l 1
 384 436 370 474 322 474 c 2
 79 474 l 1
 79 633 l 1
 322 633 l 2
 418 633 508 556 539 468 c 2
 703 0 l 1
 535 0 l 1
 452 237 l 1
 215 237 l 2
253 731 m 1
 280 713 l 1
 267 688 252 675 233 675 c 0
 224 675 213 680 200 689 c 0
 187 698 179 703 174 703 c 0
 168 703 162 697 155 686 c 1
 127 702 l 1
 138 729 154 743 174 743 c 0
 183 743 195 738 208 729 c 0
 221 719 230 714 233 714 c 0
 240 714 247 720 253 731 c 1
EndSplineSet
EndChar

StartChar: adieresis
Encoding: 228 228 165
Width: 728
Flags: W
LayerCount: 2
Fore
SplineSet
215 237 m 2
 198 237 184 222 184 205 c 0
 184 184 186 159 215 159 c 2
 437 159 l 1
 437 0 l 1
 215 0 l 2
 111 0 25 86 25 190 c 2
 25 205 l 2
 25 310 111 396 215 396 c 2
 397 396 l 1
 384 436 370 474 322 474 c 2
 79 474 l 1
 79 633 l 1
 322 633 l 2
 418 633 508 556 539 468 c 2
 703 0 l 1
 535 0 l 1
 452 237 l 1
 215 237 l 2
148 744 m 0
 169 744 186 727 186 706 c 0
 186 685 169 668 148 668 c 0
 127 668 110 685 110 706 c 0
 110 727 127 744 148 744 c 0
255 745 m 0
 276 745 293 728 293 707 c 0
 293 686 276 669 255 669 c 0
 234 669 217 686 217 707 c 0
 217 728 234 745 255 745 c 0
EndSplineSet
EndChar

StartChar: aring
Encoding: 229 229 166
Width: 728
Flags: W
LayerCount: 2
Fore
SplineSet
222 734 m 0
 260 734 291 703 291 665 c 0
 291 653 288 642 283 633 c 1
 322 633 l 2
 418 633 508 556 539 468 c 2
 703 0 l 1
 535 0 l 1
 452 237 l 1
 215 237 l 2
 198 237 184 222 184 205 c 0
 184 184 186 159 215 159 c 2
 437 159 l 1
 437 0 l 1
 215 0 l 2
 111 0 25 86 25 190 c 2
 25 205 l 2
 25 310 111 396 215 396 c 2
 397 396 l 1
 384 436 370 474 322 474 c 2
 79 474 l 1
 79 633 l 1
 159 633 l 1
 154 642 152 653 152 665 c 0
 152 703 184 734 222 734 c 0
190 665 m 0
 190 648 202 635 218 633 c 2
 226 633 l 2
 241 635 253 648 253 665 c 0
 253 682 239 696 222 696 c 0
 205 696 190 682 190 665 c 0
EndSplineSet
EndChar

StartChar: ae
Encoding: 230 230 167
Width: 1100
Flags: W
LayerCount: 2
Fore
SplineSet
514 519 m 1
 571 590 657 636 755 636 c 2
 891 636 l 2
 992 636 1075 553 1075 452 c 2
 1075 423 l 2
 1075 321 992 238 891 238 c 2
 681 238 l 1
 681 397 l 1
 891 397 l 2
 904 397 916 409 916 423 c 0
 916 443 921 478 891 478 c 2
 755 478 l 2
 668 478 603 403 603 318 c 0
 603 234 668 159 755 159 c 2
 1054 159 l 1
 1054 0 l 1
 755 0 l 2
 608 0 489 104 454 239 c 1
 452 239 l 1
 452 237 l 1
 215 237 l 2
 198 237 184 222 184 205 c 0
 184 184 186 159 215 159 c 2
 437 159 l 1
 437 0 l 1
 215 0 l 2
 111 0 25 86 25 190 c 2
 25 205 l 2
 25 310 111 396 215 396 c 2
 397 396 l 1
 384 436 370 474 322 474 c 2
 27 474 l 1
 27 633 l 1
 322 633 l 2
 399 633 472 583 514 519 c 1
EndSplineSet
EndChar

StartChar: ccedilla
Encoding: 231 231 168
Width: 573
Flags: W
LayerCount: 2
Fore
SplineSet
436 -143 m 0
 436 -194 396 -240 344 -240 c 2
 250 -240 l 1
 270 -192 l 1
 344 -192 l 2
 370 -192 388 -168 388 -143 c 0
 388 -84 330 -94 291 -94 c 1
 329 0 l 1
 326 0 l 2
 160 0 25 142 25 316 c 0
 25 491 160 633 326 633 c 2
 548 633 l 1
 548 474 l 1
 326 474 l 2
 248 474 184 403 184 316 c 0
 184 229 248 159 326 159 c 2
 548 159 l 1
 548 0 l 1
 381 0 l 1
 361 -48 l 1
 406 -57 436 -98 436 -143 c 0
EndSplineSet
EndChar

StartChar: egrave
Encoding: 232 232 169
Width: 680
Flags: W
LayerCount: 2
Fore
SplineSet
25 318 m 0
 25 490 161 636 335 636 c 2
 471 636 l 2
 572 636 655 553 655 452 c 2
 655 423 l 2
 655 321 572 238 471 238 c 2
 261 238 l 1
 261 397 l 1
 471 397 l 2
 485 397 497 409 497 423 c 0
 497 443 502 478 471 478 c 2
 335 478 l 2
 249 478 184 403 184 318 c 0
 184 234 249 159 335 159 c 2
 634 159 l 1
 634 0 l 1
 335 0 l 2
 161 0 25 146 25 318 c 0
368 744 m 1
 442 678 l 1
 372 678 l 1
 265 744 l 1
 368 744 l 1
EndSplineSet
EndChar

StartChar: eacute
Encoding: 233 233 170
Width: 680
Flags: W
LayerCount: 2
Fore
SplineSet
25 318 m 0
 25 490 161 636 335 636 c 2
 471 636 l 2
 572 636 655 553 655 452 c 2
 655 423 l 2
 655 321 572 238 471 238 c 2
 261 238 l 1
 261 397 l 1
 471 397 l 2
 485 397 497 409 497 423 c 0
 497 443 502 478 471 478 c 2
 335 478 l 2
 249 478 184 403 184 318 c 0
 184 234 249 159 335 159 c 2
 634 159 l 1
 634 0 l 1
 335 0 l 2
 161 0 25 146 25 318 c 0
325 679 m 1
 399 745 l 1
 502 745 l 1
 395 679 l 1
 325 679 l 1
EndSplineSet
EndChar

StartChar: ecircumflex
Encoding: 234 234 171
Width: 680
Flags: W
LayerCount: 2
Fore
SplineSet
25 318 m 0
 25 490 161 636 335 636 c 2
 471 636 l 2
 572 636 655 553 655 452 c 2
 655 423 l 2
 655 321 572 238 471 238 c 2
 261 238 l 1
 261 397 l 1
 471 397 l 2
 485 397 497 409 497 423 c 0
 497 443 502 478 471 478 c 2
 335 478 l 2
 249 478 184 403 184 318 c 0
 184 234 249 159 335 159 c 2
 634 159 l 1
 634 0 l 1
 335 0 l 2
 161 0 25 146 25 318 c 0
389 717 m 1
 377 703 369 686 357 672 c 1
 303 672 l 1
 352 729 l 2
 361 739 376 742 389 742 c 0
 402 742 417 739 425 728 c 2
 473 672 l 1
 419 672 l 1
 407 686 400 703 389 717 c 1
EndSplineSet
EndChar

StartChar: edieresis
Encoding: 235 235 172
Width: 680
Flags: W
LayerCount: 2
Fore
SplineSet
25 318 m 0
 25 490 161 636 335 636 c 2
 471 636 l 2
 572 636 655 553 655 452 c 2
 655 423 l 2
 655 321 572 238 471 238 c 2
 261 238 l 1
 261 397 l 1
 471 397 l 2
 485 397 497 409 497 423 c 0
 497 443 502 478 471 478 c 2
 335 478 l 2
 249 478 184 403 184 318 c 0
 184 234 249 159 335 159 c 2
 634 159 l 1
 634 0 l 1
 335 0 l 2
 161 0 25 146 25 318 c 0
343 745 m 0
 364 745 381 728 381 707 c 0
 381 686 364 669 343 669 c 0
 322 669 305 686 305 707 c 0
 305 728 322 745 343 745 c 0
450 746 m 0
 471 746 488 729 488 708 c 0
 488 687 471 670 450 670 c 0
 429 670 412 687 412 708 c 0
 412 729 429 746 450 746 c 0
EndSplineSet
EndChar

StartChar: igrave
Encoding: 236 236 173
Width: 252
Flags: W
LayerCount: 2
Fore
SplineSet
205 1 m 1
 47 1 l 1
 47 421 l 1
 205 421 l 1
 205 1 l 1
105 643 m 1
 193 469 l 1
 123 469 l 1
 2 643 l 1
 105 643 l 1
EndSplineSet
EndChar

StartChar: iacute
Encoding: 237 237 174
Width: 252
Flags: W
LayerCount: 2
Fore
SplineSet
205 1 m 1
 47 1 l 1
 47 421 l 1
 205 421 l 1
 205 1 l 1
51 469 m 1
 140 639 l 1
 243 639 l 1
 121 469 l 1
 51 469 l 1
EndSplineSet
EndChar

StartChar: icircumflex
Encoding: 238 238 175
Width: 252
Flags: W
LayerCount: 2
Fore
SplineSet
205 1 m 1
 47 1 l 1
 47 421 l 1
 205 421 l 1
 205 1 l 1
126 609 m 1
 114 595 106 578 94 564 c 1
 40 564 l 1
 89 621 l 2
 98 631 113 634 126 634 c 0
 139 634 154 631 162 620 c 2
 210 564 l 1
 156 564 l 1
 144 578 137 595 126 609 c 1
EndSplineSet
EndChar

StartChar: idieresis
Encoding: 239 239 176
Width: 252
Flags: W
LayerCount: 2
Fore
SplineSet
205 1 m 1
 47 1 l 1
 47 421 l 1
 205 421 l 1
 205 1 l 1
73 636 m 0
 94 636 111 619 111 598 c 0
 111 577 94 560 73 560 c 0
 52 560 35 577 35 598 c 0
 35 619 52 636 73 636 c 0
180 637 m 0
 201 637 218 620 218 599 c 0
 218 578 201 561 180 561 c 0
 159 561 142 578 142 599 c 0
 142 620 159 637 180 637 c 0
EndSplineSet
EndChar

StartChar: eth
Encoding: 240 240 177
Width: 645
Flags: W
LayerCount: 2
Fore
SplineSet
221 239 m 1
 221 159 l 1
 319 159 l 2
 397 159 461 229 461 316 c 0
 461 403 397 474 319 474 c 2
 221 474 l 1
 221 398 l 1
 340 398 l 1
 340 239 l 1
 221 239 l 1
25 398 m 1
 63 398 l 1
 63 633 l 1
 319 633 l 2
 485 633 620 491 620 316 c 0
 620 142 485 0 319 0 c 2
 63 0 l 1
 63 239 l 1
 25 239 l 1
 25 398 l 1
EndSplineSet
EndChar

StartChar: ntilde
Encoding: 241 241 178
Width: 648
Flags: W
LayerCount: 2
Fore
SplineSet
324 649 m 0
 495 649 623 501 623 334 c 2
 623 0 l 1
 466 0 l 1
 466 334 l 2
 466 414 408 491 324 491 c 0
 240 491 182 414 182 334 c 2
 182 0 l 1
 25 0 l 1
 25 334 l 2
 25 501 153 649 324 649 c 0
367 733 m 1
 394 715 l 1
 381 690 366 677 347 677 c 0
 338 677 327 682 314 691 c 0
 301 700 293 705 288 705 c 0
 282 705 276 699 269 688 c 1
 241 704 l 1
 252 731 268 745 288 745 c 0
 297 745 309 740 322 731 c 0
 335 721 344 716 347 716 c 0
 354 716 361 722 367 733 c 1
EndSplineSet
EndChar

StartChar: ograve
Encoding: 242 242 179
Width: 701
Flags: W
LayerCount: 2
Fore
SplineSet
351 647 m 0
 534 647 676 494 676 313 c 0
 676 133 534 -21 351 -21 c 0
 168 -21 25 133 25 313 c 0
 25 494 168 647 351 647 c 0
351 137 m 0
 447 137 519 220 519 313 c 0
 519 407 447 490 351 490 c 0
 255 490 182 407 182 313 c 0
 182 220 254 137 351 137 c 0
318 747 m 1
 392 681 l 1
 322 681 l 1
 215 747 l 1
 318 747 l 1
EndSplineSet
EndChar

StartChar: oacute
Encoding: 243 243 180
Width: 701
Flags: W
LayerCount: 2
Fore
SplineSet
351 647 m 0
 534 647 676 494 676 313 c 0
 676 133 534 -21 351 -21 c 0
 168 -21 25 133 25 313 c 0
 25 494 168 647 351 647 c 0
351 137 m 0
 447 137 519 220 519 313 c 0
 519 407 447 490 351 490 c 0
 255 490 182 407 182 313 c 0
 182 220 254 137 351 137 c 0
305 680 m 1
 379 746 l 1
 482 746 l 1
 375 680 l 1
 305 680 l 1
EndSplineSet
EndChar

StartChar: ocircumflex
Encoding: 244 244 181
Width: 701
Flags: W
LayerCount: 2
Fore
SplineSet
351 647 m 0
 534 647 676 494 676 313 c 0
 676 133 534 -21 351 -21 c 0
 168 -21 25 133 25 313 c 0
 25 494 168 647 351 647 c 0
351 137 m 0
 447 137 519 220 519 313 c 0
 519 407 447 490 351 490 c 0
 255 490 182 407 182 313 c 0
 182 220 254 137 351 137 c 0
349 720 m 1
 337 706 329 689 317 675 c 1
 263 675 l 1
 312 732 l 2
 321 742 336 745 349 745 c 0
 362 745 377 742 385 731 c 2
 433 675 l 1
 379 675 l 1
 367 689 360 706 349 720 c 1
EndSplineSet
EndChar

StartChar: otilde
Encoding: 245 245 182
Width: 701
Flags: W
LayerCount: 2
Fore
SplineSet
351 647 m 0
 534 647 676 494 676 313 c 0
 676 133 534 -21 351 -21 c 0
 168 -21 25 133 25 313 c 0
 25 494 168 647 351 647 c 0
351 137 m 0
 447 137 519 220 519 313 c 0
 519 407 447 490 351 490 c 0
 255 490 182 407 182 313 c 0
 182 220 254 137 351 137 c 0
397 732 m 1
 424 714 l 1
 411 689 396 676 377 676 c 0
 368 676 357 681 344 690 c 0
 331 699 323 704 318 704 c 0
 312 704 306 698 299 687 c 1
 271 703 l 1
 282 730 298 744 318 744 c 0
 327 744 339 739 352 730 c 0
 365 720 374 715 377 715 c 0
 384 715 391 721 397 732 c 1
EndSplineSet
EndChar

StartChar: odieresis
Encoding: 246 246 183
Width: 701
Flags: W
LayerCount: 2
Fore
SplineSet
351 647 m 0
 534 647 676 494 676 313 c 0
 676 133 534 -21 351 -21 c 0
 168 -21 25 133 25 313 c 0
 25 494 168 647 351 647 c 0
351 137 m 0
 447 137 519 220 519 313 c 0
 519 407 447 490 351 490 c 0
 255 490 182 407 182 313 c 0
 182 220 254 137 351 137 c 0
293 745 m 0
 314 745 331 728 331 707 c 0
 331 686 314 669 293 669 c 0
 272 669 255 686 255 707 c 0
 255 728 272 745 293 745 c 0
400 746 m 0
 421 746 438 729 438 708 c 0
 438 687 421 670 400 670 c 0
 379 670 362 687 362 708 c 0
 362 729 379 746 400 746 c 0
EndSplineSet
EndChar

StartChar: divide
Encoding: 247 247 184
Width: 410
Flags: W
LayerCount: 2
Fore
SplineSet
25 244 m 1
 385 244 l 1
 385 165 l 1
 25 165 l 1
 25 244 l 1
205 143 m 0
 233 143 255 120 255 93 c 0
 255 65 233 42 205 42 c 0
 177 42 154 65 154 93 c 0
 154 120 177 143 205 143 c 0
205 371 m 0
 233 371 255 349 255 321 c 0
 255 293 233 270 205 270 c 0
 177 270 154 293 154 321 c 0
 154 349 177 371 205 371 c 0
EndSplineSet
EndChar

StartChar: oslash
Encoding: 248 248 185
Width: 701
Flags: W
LayerCount: 2
Fore
SplineSet
477 430 m 1
 374 139 l 1
 458 151 519 227 519 313 c 0
 519 357 503 398 477 430 c 1
225 196 m 1
 328 488 l 1
 243 476 182 399 182 313 c 0
 182 269 198 227 225 196 c 1
157 1 m 1
 169 36 l 1
 82 96 25 199 25 313 c 0
 25 494 168 647 351 647 c 0
 385 647 417 642 448 632 c 1
 548 632 l 1
 533 590 l 1
 620 529 676 426 676 313 c 0
 676 133 534 -21 351 -21 c 0
 310 -21 271 -13 235 1 c 1
 157 1 l 1
EndSplineSet
EndChar

StartChar: ugrave
Encoding: 249 249 186
Width: 648
Flags: W
LayerCount: 2
Fore
SplineSet
324 143 m 0
 408 143 466 220 466 299 c 2
 466 629 l 1
 623 629 l 1
 623 299 l 2
 623 133 495 -15 324 -15 c 0
 153 -15 25 133 25 299 c 2
 25 629 l 1
 182 629 l 1
 182 299 l 2
 182 220 240 143 324 143 c 0
328 746 m 1
 402 680 l 1
 332 680 l 1
 225 746 l 1
 328 746 l 1
EndSplineSet
EndChar

StartChar: uacute
Encoding: 250 250 187
Width: 648
Flags: W
LayerCount: 2
Fore
SplineSet
324 143 m 0
 408 143 466 220 466 299 c 2
 466 629 l 1
 623 629 l 1
 623 299 l 2
 623 133 495 -15 324 -15 c 0
 153 -15 25 133 25 299 c 2
 25 629 l 1
 182 629 l 1
 182 299 l 2
 182 220 240 143 324 143 c 0
235 679 m 1
 309 745 l 1
 412 745 l 1
 305 679 l 1
 235 679 l 1
EndSplineSet
EndChar

StartChar: ucircumflex
Encoding: 251 251 188
Width: 648
Flags: W
LayerCount: 2
Fore
SplineSet
324 143 m 0
 408 143 466 220 466 299 c 2
 466 629 l 1
 623 629 l 1
 623 299 l 2
 623 133 495 -15 324 -15 c 0
 153 -15 25 133 25 299 c 2
 25 629 l 1
 182 629 l 1
 182 299 l 2
 182 220 240 143 324 143 c 0
319 719 m 1
 307 705 299 688 287 674 c 1
 233 674 l 1
 282 731 l 2
 291 741 306 744 319 744 c 0
 332 744 347 741 355 730 c 2
 403 674 l 1
 349 674 l 1
 337 688 330 705 319 719 c 1
EndSplineSet
EndChar

StartChar: udieresis
Encoding: 252 252 189
Width: 648
Flags: W
LayerCount: 2
Fore
SplineSet
324 143 m 0
 408 143 466 220 466 299 c 2
 466 629 l 1
 623 629 l 1
 623 299 l 2
 623 133 495 -15 324 -15 c 0
 153 -15 25 133 25 299 c 2
 25 629 l 1
 182 629 l 1
 182 299 l 2
 182 220 240 143 324 143 c 0
273 747 m 0
 294 747 311 730 311 709 c 0
 311 688 294 671 273 671 c 0
 252 671 235 688 235 709 c 0
 235 730 252 747 273 747 c 0
380 748 m 0
 401 748 418 731 418 710 c 0
 418 689 401 672 380 672 c 0
 359 672 342 689 342 710 c 0
 342 731 359 748 380 748 c 0
EndSplineSet
EndChar

StartChar: yacute
Encoding: 253 253 190
Width: 642
Flags: W
LayerCount: 2
Fore
SplineSet
436 633 m 1
 617 633 l 1
 480 376 l 2
 446 314 414 250 378 189 c 2
 373 181 l 1
 349 138 l 2
 305 59 205 0 115 0 c 2
 25 0 l 1
 25 159 l 1
 115 159 l 2
 146 159 185 182 204 206 c 1
 19 633 l 1
 192 633 l 1
 301 381 l 1
 348 464 436 633 436 633 c 1
235 652 m 1
 309 718 l 1
 412 718 l 1
 305 652 l 1
 235 652 l 1
EndSplineSet
EndChar

StartChar: thorn
Encoding: 254 254 191
Width: 643
Flags: W
LayerCount: 2
Fore
SplineSet
184 566 m 1
 379 566 l 2
 515 566 618 449 618 316 c 0
 618 183 515 67 379 67 c 2
 184 67 l 1
 184 0 l 1
 25 0 l 1
 25 633 l 1
 184 633 l 1
 184 566 l 1
379 225 m 2
 427 225 459 272 459 316 c 0
 459 361 427 407 379 407 c 2
 184 407 l 1
 184 225 l 1
 379 225 l 2
EndSplineSet
EndChar

StartChar: ydieresis
Encoding: 255 255 192
Width: 642
Flags: W
LayerCount: 2
Fore
SplineSet
436 633 m 1
 617 633 l 1
 480 376 l 2
 446 314 414 250 378 189 c 2
 373 181 l 1
 349 138 l 2
 305 59 205 0 115 0 c 2
 25 0 l 1
 25 159 l 1
 115 159 l 2
 146 159 185 182 204 206 c 1
 19 633 l 1
 192 633 l 1
 301 381 l 1
 348 464 436 633 436 633 c 1
253 732 m 0
 274 732 291 715 291 694 c 0
 291 673 274 656 253 656 c 0
 232 656 215 673 215 694 c 0
 215 715 232 732 253 732 c 0
360 733 m 0
 381 733 398 716 398 695 c 0
 398 674 381 657 360 657 c 0
 339 657 322 674 322 695 c 0
 322 716 339 733 360 733 c 0
EndSplineSet
EndChar

StartChar: dotlessi
Encoding: 305 305 193
Width: 252
Flags: W
LayerCount: 2
Fore
SplineSet
205 1 m 1
 47 1 l 1
 47 421 l 1
 205 421 l 1
 205 1 l 1
EndSplineSet
EndChar

StartChar: Lslash
Encoding: 321 321 194
Width: 541
Flags: W
LayerCount: 2
Fore
SplineSet
10 41 m 1
 46 104 l 1
 33 130 25 159 25 190 c 2
 25 633 l 1
 184 633 l 1
 184 345 l 1
 311 569 l 1
 481 569 l 1
 245 159 l 1
 516 159 l 1
 516 0 l 1
 215 0 l 2
 171 0 130 15 97 41 c 1
 10 41 l 1
EndSplineSet
EndChar

StartChar: lslash
Encoding: 322 322 195
Width: 541
Flags: W
LayerCount: 2
Fore
SplineSet
191 629 m 1
 250 461 l 1
 311 569 l 1
 481 569 l 1
 314 278 l 1
 336 215 l 2
 349 180 364 157 403 157 c 2
 503 157 l 1
 503 0 l 1
 403 0 l 2
 329 0 258 46 217 108 c 1
 178 41 l 1
 10 41 l 1
 147 281 l 1
 25 629 l 1
 191 629 l 1
EndSplineSet
EndChar

StartChar: OE
Encoding: 338 338 196
Width: 1106
Flags: W
LayerCount: 2
Fore
SplineSet
351 139 m 0
 444 139 515 218 519 309 c 1
 519 316 l 2
 519 318 519 321 518 323 c 0
 515 414 444 492 351 492 c 0
 255 492 182 409 182 316 c 0
 182 222 254 139 351 139 c 0
820 633 m 2
 1081 633 l 1
 1081 474 l 1
 820 474 l 2
 767 474 721 442 697 396 c 1
 963 396 l 1
 963 237 l 1
 697 237 l 1
 721 190 767 159 820 159 c 2
 1081 159 l 1
 1081 0 l 1
 820 0 l 2
 733 0 654 39 599 101 c 1
 540 29 451 -18 351 -18 c 0
 168 -18 25 135 25 316 c 0
 25 496 168 650 351 650 c 0
 451 650 540 603 599 531 c 1
 654 594 732 633 820 633 c 2
518 316 m 1
 519 309 l 1
 519 316 l 2
 519 318 519 321 518 323 c 2
 518 316 l 1
EndSplineSet
EndChar

StartChar: oe
Encoding: 339 339 197
Width: 1173
Flags: W
LayerCount: 2
Fore
SplineSet
351 142 m 0
 443 142 513 218 518 307 c 0
 519 311 519 314 519 318 c 0
 519 322 519 325 518 329 c 0
 513 418 443 494 351 494 c 0
 255 494 182 412 182 318 c 0
 182 224 254 142 351 142 c 0
600 533 m 1
 656 596 737 636 829 636 c 2
 964 636 l 2
 1066 636 1148 553 1148 452 c 2
 1148 423 l 2
 1148 321 1066 238 964 238 c 2
 754 238 l 1
 754 397 l 1
 964 397 l 2
 978 397 990 409 990 423 c 0
 990 443 995 478 964 478 c 2
 829 478 l 2
 742 478 677 403 677 318 c 0
 677 234 742 159 829 159 c 2
 1127 159 l 1
 1127 0 l 1
 829 0 l 2
 737 0 656 40 600 103 c 1
 541 31 452 -16 351 -16 c 0
 168 -16 25 137 25 318 c 0
 25 499 168 652 351 652 c 0
 452 652 540 605 600 533 c 1
518 329 m 2
 518 318 l 1
 518 307 l 2
 519 311 519 314 519 318 c 0
 519 322 519 325 518 329 c 2
EndSplineSet
EndChar

StartChar: Scaron
Encoding: 352 352 198
Width: 652
Flags: W
LayerCount: 2
Fore
SplineSet
184 443 m 0
 184 422 186 397 215 397 c 2
 437 397 l 2
 542 397 627 311 627 206 c 2
 627 192 l 2
 627 87 542 1 437 1 c 2
 73 1 l 1
 73 160 l 1
 437 160 l 2
 454 160 469 174 469 192 c 0
 469 213 466 238 437 238 c 2
 215 238 l 2
 111 238 25 324 25 429 c 2
 25 443 l 2
 25 548 111 634 215 634 c 2
 580 634 l 1
 580 475 l 1
 215 475 l 2
 198 475 184 461 184 443 c 0
319 679 m 1
 330 693 337 710 349 724 c 1
 403 724 l 1
 355 668 l 2
 347 657 332 654 319 654 c 0
 306 654 291 657 282 667 c 2
 233 724 l 1
 287 724 l 1
 299 710 307 693 319 679 c 1
EndSplineSet
EndChar

StartChar: scaron
Encoding: 353 353 199
Width: 645
Flags: W
LayerCount: 2
Fore
SplineSet
25 157 m 1
 125 157 l 2
 151 157 184 194 192 216 c 2
 286 467 l 2
 319 556 414 628 510 628 c 2
 620 628 l 1
 620 471 l 1
 510 471 l 2
 480 471 443 439 433 412 c 2
 340 161 l 2
 308 76 219 0 125 0 c 2
 25 0 l 1
 25 157 l 1
519 679 m 1
 530 693 537 710 549 724 c 1
 603 724 l 1
 555 668 l 2
 547 657 532 654 519 654 c 0
 506 654 491 657 482 667 c 2
 433 724 l 1
 487 724 l 1
 499 710 507 693 519 679 c 1
EndSplineSet
EndChar

StartChar: Ydieresis
Encoding: 376 376 200
Width: 642
Flags: W
LayerCount: 2
Fore
SplineSet
436 634 m 1
 617 634 l 1
 480 376 l 2
 446 314 414 250 378 189 c 2
 373 181 l 1
 349 138 l 2
 305 59 205 0 115 0 c 2
 25 0 l 1
 25 159 l 1
 115 159 l 2
 146 159 185 182 204 206 c 1
 19 634 l 1
 192 634 l 1
 301 381 l 1
 348 464 392 549 436 634 c 1
253 732 m 0
 274 732 291 715 291 694 c 0
 291 673 274 656 253 656 c 0
 232 656 215 673 215 694 c 0
 215 715 232 732 253 732 c 0
360 733 m 0
 381 733 398 716 398 695 c 0
 398 674 381 657 360 657 c 0
 339 657 322 674 322 695 c 0
 322 716 339 733 360 733 c 0
EndSplineSet
EndChar

StartChar: Zcaron
Encoding: 381 381 201
Width: 627
Flags: W
LayerCount: 2
Fore
SplineSet
602 518 m 0
 602 475 577 439 546 412 c 2
 252 159 l 1
 597 159 l 1
 597 0 l 1
 177 0 l 2
 105 0 25 32 25 115 c 0
 25 157 50 193 81 220 c 2
 375 474 l 1
 30 474 l 1
 30 633 l 1
 451 633 l 2
 523 633 602 601 602 518 c 0
289 679 m 1
 300 693 307 710 319 724 c 1
 373 724 l 1
 325 668 l 2
 317 657 302 654 289 654 c 0
 276 654 261 657 252 667 c 2
 203 724 l 1
 257 724 l 1
 269 710 277 693 289 679 c 1
EndSplineSet
EndChar

StartChar: zcaron
Encoding: 382 382 202
Width: 627
Flags: W
LayerCount: 2
Fore
SplineSet
602 518 m 0
 602 475 577 439 546 412 c 2
 252 159 l 1
 597 159 l 1
 597 0 l 1
 177 0 l 2
 105 0 25 32 25 115 c 0
 25 157 50 193 81 220 c 2
 375 474 l 1
 30 474 l 1
 30 633 l 1
 451 633 l 2
 523 633 602 601 602 518 c 0
279 679 m 1
 290 693 297 710 309 724 c 1
 363 724 l 1
 315 668 l 2
 307 657 292 654 279 654 c 0
 266 654 251 657 242 667 c 2
 193 724 l 1
 247 724 l 1
 259 710 267 693 279 679 c 1
EndSplineSet
EndChar

StartChar: florin
Encoding: 402 402 203
Width: 701
Flags: W
LayerCount: 2
Fore
SplineSet
350 642 m 0
 399 642 438 605 438 555 c 0
 438 552 438 549 437 546 c 2
 422 403 l 1
 553 462 l 2
 564 467 577 470 589 470 c 0
 638 470 676 429 676 381 c 0
 676 339 647 305 606 296 c 2
 466 267 l 1
 562 161 l 2
 577 145 585 124 585 102 c 0
 585 54 544 14 496 14 c 0
 465 14 437 32 422 59 c 2
 350 183 l 1
 279 58 l 2
 264 32 235 14 204 14 c 0
 157 14 115 54 115 102 c 0
 115 124 124 145 138 161 c 2
 235 267 l 1
 94 296 l 2
 54 305 25 339 25 380 c 0
 25 429 62 470 112 470 c 0
 124 470 137 467 148 462 c 2
 279 403 l 1
 263 546 l 1
 263 555 l 2
 263 604 301 642 350 642 c 0
EndSplineSet
EndChar

StartChar: circumflex
Encoding: 710 710 204
Width: 315
Flags: W
LayerCount: 2
Fore
SplineSet
159 589 m 1
 147 575 139 558 127 544 c 1
 73 544 l 1
 122 601 l 2
 131 611 146 614 159 614 c 0
 172 614 187 611 195 600 c 2
 243 544 l 1
 189 544 l 1
 177 558 170 575 159 589 c 1
EndSplineSet
EndChar

StartChar: caron
Encoding: 711 711 205
Width: 315
Flags: W
LayerCount: 2
Fore
SplineSet
159 569 m 1
 170 583 177 600 189 614 c 1
 243 614 l 1
 195 558 l 2
 187 547 172 544 159 544 c 0
 146 544 131 547 122 557 c 2
 73 614 l 1
 127 614 l 1
 139 600 147 583 159 569 c 1
EndSplineSet
EndChar

StartChar: breve
Encoding: 728 728 206
Width: 191
Flags: W
LayerCount: 2
Fore
SplineSet
93 642 m 0
 111 642 124 659 124 676 c 2
 124 686 l 1
 158 686 l 1
 158 676 l 2
 158 640 130 608 93 608 c 0
 56 608 28 640 28 676 c 2
 28 686 l 1
 62 686 l 1
 62 676 l 2
 62 659 75 642 93 642 c 0
EndSplineSet
EndChar

StartChar: dotaccent
Encoding: 729 729 207
Width: 128
Flags: W
LayerCount: 2
Fore
SplineSet
65 679 m 0
 86 679 103 662 103 641 c 0
 103 620 86 603 65 603 c 0
 44 603 27 620 27 641 c 0
 27 662 44 679 65 679 c 0
EndSplineSet
EndChar

StartChar: ring
Encoding: 730 730 208
Width: 224
Flags: W
LayerCount: 2
Fore
SplineSet
112 647 m 0
 150 647 181 616 181 578 c 0
 181 539 150 508 112 508 c 0
 74 508 42 539 42 578 c 0
 42 616 74 647 112 647 c 0
112 546 m 0
 129 546 143 560 143 578 c 0
 143 595 129 609 112 609 c 0
 95 609 80 595 80 578 c 0
 80 560 95 546 112 546 c 0
EndSplineSet
EndChar

StartChar: ogonek
Encoding: 731 731 209
Width: 326
Flags: W
LayerCount: 2
Fore
SplineSet
148 30 m 1
 207 -138 l 2
 212 -153 219 -164 236 -164 c 2
 280 -164 l 1
 280 -233 l 1
 236 -233 l 2
 195 -233 155 -200 142 -161 c 2
 75 30 l 1
 148 30 l 1
EndSplineSet
EndChar

StartChar: tilde
Encoding: 732 732 210
Width: 206
Flags: W
LayerCount: 2
Fore
SplineSet
157 603 m 1
 184 585 l 1
 171 560 156 547 137 547 c 0
 128 547 117 552 104 561 c 0
 91 570 83 575 78 575 c 0
 72 575 66 569 59 558 c 1
 31 574 l 1
 42 601 58 615 78 615 c 0
 87 615 99 610 112 601 c 0
 125 591 134 586 137 586 c 0
 144 586 151 592 157 603 c 1
EndSplineSet
EndChar

StartChar: hungarumlaut
Encoding: 733 733 211
Width: 399
Flags: W
LayerCount: 2
Fore
SplineSet
33 604 m 1
 107 670 l 1
 210 670 l 1
 103 604 l 1
 33 604 l 1
179 604 m 1
 253 670 l 1
 356 670 l 1
 249 604 l 1
 179 604 l 1
EndSplineSet
EndChar

StartChar: Delta
Encoding: 916 916 212
Width: 701
Flags: W
LayerCount: 2
Fore
SplineSet
350 642 m 0
 399 642 438 605 438 555 c 0
 438 552 438 549 437 546 c 2
 422 403 l 1
 553 462 l 2
 564 467 577 470 589 470 c 0
 638 470 676 429 676 381 c 0
 676 339 647 305 606 296 c 2
 466 267 l 1
 562 161 l 2
 577 145 585 124 585 102 c 0
 585 54 544 14 496 14 c 0
 465 14 437 32 422 59 c 2
 350 183 l 1
 279 58 l 2
 264 32 235 14 204 14 c 0
 157 14 115 54 115 102 c 0
 115 124 124 145 138 161 c 2
 235 267 l 1
 94 296 l 2
 54 305 25 339 25 380 c 0
 25 429 62 470 112 470 c 0
 124 470 137 467 148 462 c 2
 279 403 l 1
 263 546 l 1
 263 555 l 2
 263 604 301 642 350 642 c 0
EndSplineSet
EndChar

StartChar: Omega
Encoding: 937 937 213
Width: 701
Flags: W
LayerCount: 2
Fore
SplineSet
350 642 m 0
 399 642 438 605 438 555 c 0
 438 552 438 549 437 546 c 2
 422 403 l 1
 553 462 l 2
 564 467 577 470 589 470 c 0
 638 470 676 429 676 381 c 0
 676 339 647 305 606 296 c 2
 466 267 l 1
 562 161 l 2
 577 145 585 124 585 102 c 0
 585 54 544 14 496 14 c 0
 465 14 437 32 422 59 c 2
 350 183 l 1
 279 58 l 2
 264 32 235 14 204 14 c 0
 157 14 115 54 115 102 c 0
 115 124 124 145 138 161 c 2
 235 267 l 1
 94 296 l 2
 54 305 25 339 25 380 c 0
 25 429 62 470 112 470 c 0
 124 470 137 467 148 462 c 2
 279 403 l 1
 263 546 l 1
 263 555 l 2
 263 604 301 642 350 642 c 0
EndSplineSet
EndChar

StartChar: pi
Encoding: 960 960 214
Width: 701
Flags: W
LayerCount: 2
Fore
SplineSet
350 642 m 0
 399 642 438 605 438 555 c 0
 438 552 438 549 437 546 c 2
 422 403 l 1
 553 462 l 2
 564 467 577 470 589 470 c 0
 638 470 676 429 676 381 c 0
 676 339 647 305 606 296 c 2
 466 267 l 1
 562 161 l 2
 577 145 585 124 585 102 c 0
 585 54 544 14 496 14 c 0
 465 14 437 32 422 59 c 2
 350 183 l 1
 279 58 l 2
 264 32 235 14 204 14 c 0
 157 14 115 54 115 102 c 0
 115 124 124 145 138 161 c 2
 235 267 l 1
 94 296 l 2
 54 305 25 339 25 380 c 0
 25 429 62 470 112 470 c 0
 124 470 137 467 148 462 c 2
 279 403 l 1
 263 546 l 1
 263 555 l 2
 263 604 301 642 350 642 c 0
EndSplineSet
EndChar

StartChar: endash
Encoding: 8211 8211 215
Width: 455
Flags: W
LayerCount: 2
Fore
SplineSet
25 396 m 1
 430 396 l 1
 430 237 l 1
 25 237 l 1
 25 396 l 1
EndSplineSet
EndChar

StartChar: emdash
Encoding: 8212 8212 216
Width: 540
Flags: W
LayerCount: 2
Fore
SplineSet
23 396 m 1
 517 396 l 1
 517 237 l 1
 23 237 l 1
 23 396 l 1
EndSplineSet
EndChar

StartChar: quoteleft
Encoding: 8216 8216 217
Width: 251
Flags: W
LayerCount: 2
Fore
SplineSet
125 294 m 0
 57 294 25 354 25 415 c 0
 25 514 80 590 167 635 c 1
 183 613 l 1
 162 594 116 546 116 518 c 0
 116 503 127 499 139 495 c 0
 188 483 226 449 226 395 c 0
 226 340 181 294 125 294 c 0
EndSplineSet
EndChar

StartChar: quoteright
Encoding: 8217 8217 218
Width: 251
Flags: W
LayerCount: 2
Fore
SplineSet
126 635 m 0
 194 635 226 575 226 514 c 0
 226 415 171 339 84 294 c 1
 68 316 l 1
 89 335 135 383 135 411 c 0
 135 426 124 430 112 433 c 0
 63 446 25 480 25 534 c 0
 25 589 70 635 126 635 c 0
EndSplineSet
EndChar

StartChar: quotesinglbase
Encoding: 8218 8218 219
Width: 251
Flags: W
LayerCount: 2
Fore
SplineSet
126 187 m 0
 194 187 226 128 226 66 c 0
 226 -32 171 -109 84 -153 c 1
 68 -131 l 1
 89 -112 135 -65 135 -36 c 0
 135 -22 124 -17 112 -14 c 0
 63 -1 25 32 25 86 c 0
 25 142 70 187 126 187 c 0
EndSplineSet
EndChar

StartChar: quotedblleft
Encoding: 8220 8220 220
Width: 475
Flags: W
LayerCount: 2
Fore
SplineSet
349 289 m 0
 281 289 249 349 249 410 c 0
 249 508 304 585 391 629 c 1
 407 608 l 1
 386 589 340 541 340 513 c 0
 340 498 351 493 363 490 c 0
 412 478 450 444 450 390 c 0
 450 334 405 289 349 289 c 0
125 294 m 0
 57 294 25 354 25 415 c 0
 25 514 80 590 167 635 c 1
 183 613 l 1
 162 594 116 546 116 518 c 0
 116 503 127 499 139 495 c 0
 188 483 226 449 226 395 c 0
 226 340 181 294 125 294 c 0
EndSplineSet
EndChar

StartChar: quotedblright
Encoding: 8221 8221 221
Width: 475
Flags: W
LayerCount: 2
Fore
SplineSet
126 635 m 0
 194 635 226 575 226 514 c 0
 226 415 171 339 84 294 c 1
 68 316 l 1
 89 335 135 383 135 411 c 0
 135 426 124 430 112 433 c 0
 63 446 25 480 25 534 c 0
 25 589 70 635 126 635 c 0
350 629 m 0
 418 629 450 570 450 509 c 0
 450 410 395 333 308 289 c 1
 292 311 l 1
 313 330 359 377 359 406 c 0
 359 421 348 425 336 428 c 0
 287 441 249 475 249 528 c 0
 249 584 294 629 350 629 c 0
EndSplineSet
EndChar

StartChar: quotedblbase
Encoding: 8222 8222 222
Width: 475
Flags: W
LayerCount: 2
Fore
SplineSet
126 187 m 0
 194 187 226 128 226 66 c 0
 226 -32 171 -109 84 -153 c 1
 68 -131 l 1
 89 -112 135 -65 135 -36 c 0
 135 -22 124 -17 112 -14 c 0
 63 -1 25 32 25 86 c 0
 25 142 70 187 126 187 c 0
350 182 m 0
 418 182 450 122 450 61 c 0
 450 -37 395 -114 308 -158 c 1
 292 -137 l 1
 313 -118 359 -70 359 -42 c 0
 359 -27 348 -22 336 -19 c 0
 287 -7 249 27 249 81 c 0
 249 137 294 182 350 182 c 0
EndSplineSet
EndChar

StartChar: dagger
Encoding: 8224 8224 223
Width: 410
Flags: W
LayerCount: 2
Fore
SplineSet
25 520 m 1
 125 520 l 1
 125 633 l 1
 284 633 l 1
 284 520 l 1
 385 520 l 1
 385 361 l 1
 284 361 l 1
 284 -40 l 1
 125 -40 l 1
 125 361 l 1
 25 361 l 1
 25 520 l 1
EndSplineSet
EndChar

StartChar: daggerdbl
Encoding: 8225 8225 224
Width: 410
Flags: W
LayerCount: 2
Fore
SplineSet
25 244 m 1
 125 244 l 1
 125 361 l 1
 25 361 l 1
 25 520 l 1
 125 520 l 1
 125 633 l 1
 284 633 l 1
 284 520 l 1
 385 520 l 1
 385 361 l 1
 284 361 l 1
 284 244 l 1
 385 244 l 1
 385 85 l 1
 284 85 l 1
 284 -40 l 1
 125 -40 l 1
 125 85 l 1
 25 85 l 1
 25 244 l 1
EndSplineSet
EndChar

StartChar: bullet
Encoding: 8226 8226 225
Width: 397
Flags: W
LayerCount: 2
Fore
SplineSet
199 466 m 0
 282 466 350 398 350 314 c 0
 350 231 282 163 199 163 c 0
 115 163 47 231 47 314 c 0
 47 398 115 466 199 466 c 0
EndSplineSet
EndChar

StartChar: ellipsis
Encoding: 8230 8230 226
Width: 746
Flags: W
LayerCount: 2
Fore
SplineSet
126 188 m 0
 182 188 227 142 227 87 c 0
 227 31 182 -14 126 -14 c 0
 70 -14 25 31 25 87 c 0
 25 142 70 188 126 188 c 0
373 188 m 0
 429 188 474 143 474 87 c 0
 474 31 429 -14 373 -14 c 0
 317 -14 272 31 272 87 c 0
 272 143 317 188 373 188 c 0
620 188 m 0
 676 188 721 143 721 87 c 0
 721 31 676 -14 620 -14 c 0
 564 -14 519 31 519 87 c 0
 519 143 564 188 620 188 c 0
EndSplineSet
EndChar

StartChar: perthousand
Encoding: 8240 8240 227
Width: 1366
Flags: W
LayerCount: 2
Fore
SplineSet
1140 399 m 0
 1251 399 1341 308 1341 198 c 0
 1341 87 1251 -3 1140 -3 c 2
 736 -3 l 1
 736 -1 l 1
 727 -2 718 -3 710 -3 c 2
 432 -3 l 2
 366 -3 307 36 307 107 c 0
 307 131 315 155 327 176 c 2
 512 507 l 2
 514 511 516 515 517 520 c 1
 513 521 508 522 503 522 c 2
 427 522 l 1
 427 432 l 2
 427 321 337 231 226 231 c 0
 115 231 25 321 25 432 c 0
 25 542 115 633 226 633 c 2
 503 633 l 2
 569 633 628 593 628 523 c 0
 628 498 621 474 609 453 c 2
 424 122 l 2
 422 118 419 114 419 110 c 0
 423 108 428 108 432 108 c 2
 509 108 l 1
 509 198 l 2
 509 308 599 399 710 399 c 0
 820 399 911 308 911 198 c 0
 911 167 903 136 889 108 c 1
 939 108 l 1
 939 198 l 2
 939 308 1029 399 1140 399 c 0
316 432 m 2
 316 522 l 1
 226 522 l 2
 176 522 136 481 136 432 c 0
 136 382 176 342 226 342 c 0
 275 342 316 382 316 432 c 2
620 108 m 1
 710 108 l 2
 759 108 800 148 800 198 c 0
 800 247 759 288 710 288 c 0
 660 288 620 247 620 198 c 2
 620 108 l 1
1140 108 m 2
 1190 108 1230 148 1230 198 c 0
 1230 247 1190 288 1140 288 c 0
 1091 288 1050 247 1050 198 c 2
 1050 108 l 1
 1140 108 l 2
EndSplineSet
EndChar

StartChar: guilsinglleft
Encoding: 8249 8249 228
Width: 282
Flags: W
LayerCount: 2
Fore
SplineSet
257 633 m 1
 193 402 l 2
 185 375 184 345 184 316 c 0
 184 288 185 258 193 231 c 2
 257 0 l 1
 92 0 l 1
 40 188 l 2
 29 229 25 274 25 316 c 0
 25 359 29 403 40 444 c 2
 92 633 l 1
 257 633 l 1
EndSplineSet
EndChar

StartChar: guilsinglright
Encoding: 8250 8250 229
Width: 282
Flags: W
LayerCount: 2
Fore
SplineSet
89 402 m 2
 25 633 l 1
 190 633 l 1
 242 444 l 2
 253 403 257 359 257 316 c 0
 257 274 253 229 242 188 c 2
 190 0 l 1
 25 0 l 1
 89 231 l 2
 97 258 98 288 98 316 c 0
 98 345 97 375 89 402 c 2
EndSplineSet
EndChar

StartChar: fraction
Encoding: 8260 8260 230
Width: 500
Flags: W
LayerCount: 2
Fore
SplineSet
22 0 m 1
 407 577 l 1
 492 577 l 1
 106 0 l 1
 22 0 l 1
EndSplineSet
EndChar

StartChar: Euro
Encoding: 8364 8364 231
Width: 626
Flags: W
LayerCount: 2
Fore
SplineSet
25 212 m 1
 25 291 l 1
 79 291 l 1
 79 300 78 308 78 316 c 0
 78 322 78 327 79 333 c 1
 27 333 l 1
 27 412 l 1
 92 412 l 1
 131 540 245 633 379 633 c 2
 601 633 l 1
 601 474 l 1
 379 474 l 2
 333 474 292 450 266 412 c 1
 471 412 l 1
 471 333 l 1
 238 333 l 1
 237 328 237 322 237 316 c 0
 237 308 237 300 239 291 c 1
 469 291 l 1
 469 212 l 1
 272 212 l 1
 299 179 337 159 379 159 c 2
 601 159 l 1
 601 0 l 1
 379 0 l 2
 248 0 136 89 95 212 c 1
 25 212 l 1
EndSplineSet
EndChar

StartChar: trademark
Encoding: 8482 8482 232
Width: 448
Flags: W
LayerCount: 2
Fore
SplineSet
25 633 m 1
 161 633 l 1
 161 617 l 1
 101 617 l 1
 101 471 l 1
 85 471 l 1
 85 617 l 1
 25 617 l 1
 25 633 l 1
360 633 m 0
 395 633 423 604 423 570 c 2
 423 468 l 1
 407 468 l 1
 407 570 l 2
 407 595 386 617 360 617 c 0
 334 617 313 595 313 570 c 2
 313 468 l 1
 297 468 l 1
 297 570 l 2
 297 595 276 617 250 617 c 0
 224 617 203 595 203 570 c 2
 203 468 l 1
 187 468 l 1
 187 570 l 2
 187 604 216 633 250 633 c 0
 273 633 294 620 305 600 c 1
 316 620 337 633 360 633 c 0
EndSplineSet
EndChar

StartChar: partialdiff
Encoding: 8706 8706 233
Width: 701
Flags: W
LayerCount: 2
Fore
SplineSet
350 642 m 0
 399 642 438 605 438 555 c 0
 438 552 438 549 437 546 c 2
 422 403 l 1
 553 462 l 2
 564 467 577 470 589 470 c 0
 638 470 676 429 676 381 c 0
 676 339 647 305 606 296 c 2
 466 267 l 1
 562 161 l 2
 577 145 585 124 585 102 c 0
 585 54 544 14 496 14 c 0
 465 14 437 32 422 59 c 2
 350 183 l 1
 279 58 l 2
 264 32 235 14 204 14 c 0
 157 14 115 54 115 102 c 0
 115 124 124 145 138 161 c 2
 235 267 l 1
 94 296 l 2
 54 305 25 339 25 380 c 0
 25 429 62 470 112 470 c 0
 124 470 137 467 148 462 c 2
 279 403 l 1
 263 546 l 1
 263 555 l 2
 263 604 301 642 350 642 c 0
EndSplineSet
EndChar

StartChar: product
Encoding: 8719 8719 234
Width: 701
Flags: W
LayerCount: 2
Fore
SplineSet
350 642 m 0
 399 642 438 605 438 555 c 0
 438 552 438 549 437 546 c 2
 422 403 l 1
 553 462 l 2
 564 467 577 470 589 470 c 0
 638 470 676 429 676 381 c 0
 676 339 647 305 606 296 c 2
 466 267 l 1
 562 161 l 2
 577 145 585 124 585 102 c 0
 585 54 544 14 496 14 c 0
 465 14 437 32 422 59 c 2
 350 183 l 1
 279 58 l 2
 264 32 235 14 204 14 c 0
 157 14 115 54 115 102 c 0
 115 124 124 145 138 161 c 2
 235 267 l 1
 94 296 l 2
 54 305 25 339 25 380 c 0
 25 429 62 470 112 470 c 0
 124 470 137 467 148 462 c 2
 279 403 l 1
 263 546 l 1
 263 555 l 2
 263 604 301 642 350 642 c 0
EndSplineSet
EndChar

StartChar: summation
Encoding: 8721 8721 235
Width: 701
Flags: W
LayerCount: 2
Fore
SplineSet
350 642 m 0
 399 642 438 605 438 555 c 0
 438 552 438 549 437 546 c 2
 422 403 l 1
 553 462 l 2
 564 467 577 470 589 470 c 0
 638 470 676 429 676 381 c 0
 676 339 647 305 606 296 c 2
 466 267 l 1
 562 161 l 2
 577 145 585 124 585 102 c 0
 585 54 544 14 496 14 c 0
 465 14 437 32 422 59 c 2
 350 183 l 1
 279 58 l 2
 264 32 235 14 204 14 c 0
 157 14 115 54 115 102 c 0
 115 124 124 145 138 161 c 2
 235 267 l 1
 94 296 l 2
 54 305 25 339 25 380 c 0
 25 429 62 470 112 470 c 0
 124 470 137 467 148 462 c 2
 279 403 l 1
 263 546 l 1
 263 555 l 2
 263 604 301 642 350 642 c 0
EndSplineSet
EndChar

StartChar: minus
Encoding: 8722 8722 236
Width: 410
Flags: W
LayerCount: 2
Fore
SplineSet
25 396 m 1
 385 396 l 1
 385 237 l 1
 25 237 l 1
 25 396 l 1
EndSplineSet
EndChar

StartChar: radical
Encoding: 8730 8730 237
Width: 701
Flags: W
LayerCount: 2
Fore
SplineSet
350 642 m 0
 399 642 438 605 438 555 c 0
 438 552 438 549 437 546 c 2
 422 403 l 1
 553 462 l 2
 564 467 577 470 589 470 c 0
 638 470 676 429 676 381 c 0
 676 339 647 305 606 296 c 2
 466 267 l 1
 562 161 l 2
 577 145 585 124 585 102 c 0
 585 54 544 14 496 14 c 0
 465 14 437 32 422 59 c 2
 350 183 l 1
 279 58 l 2
 264 32 235 14 204 14 c 0
 157 14 115 54 115 102 c 0
 115 124 124 145 138 161 c 2
 235 267 l 1
 94 296 l 2
 54 305 25 339 25 380 c 0
 25 429 62 470 112 470 c 0
 124 470 137 467 148 462 c 2
 279 403 l 1
 263 546 l 1
 263 555 l 2
 263 604 301 642 350 642 c 0
EndSplineSet
EndChar

StartChar: infinity
Encoding: 8734 8734 238
Width: 701
Flags: W
LayerCount: 2
Fore
SplineSet
350 642 m 0
 399 642 438 605 438 555 c 0
 438 552 438 549 437 546 c 2
 422 403 l 1
 553 462 l 2
 564 467 577 470 589 470 c 0
 638 470 676 429 676 381 c 0
 676 339 647 305 606 296 c 2
 466 267 l 1
 562 161 l 2
 577 145 585 124 585 102 c 0
 585 54 544 14 496 14 c 0
 465 14 437 32 422 59 c 2
 350 183 l 1
 279 58 l 2
 264 32 235 14 204 14 c 0
 157 14 115 54 115 102 c 0
 115 124 124 145 138 161 c 2
 235 267 l 1
 94 296 l 2
 54 305 25 339 25 380 c 0
 25 429 62 470 112 470 c 0
 124 470 137 467 148 462 c 2
 279 403 l 1
 263 546 l 1
 263 555 l 2
 263 604 301 642 350 642 c 0
EndSplineSet
EndChar

StartChar: integral
Encoding: 8747 8747 239
Width: 701
Flags: W
LayerCount: 2
Fore
SplineSet
350 642 m 0
 399 642 438 605 438 555 c 0
 438 552 438 549 437 546 c 2
 422 403 l 1
 553 462 l 2
 564 467 577 470 589 470 c 0
 638 470 676 429 676 381 c 0
 676 339 647 305 606 296 c 2
 466 267 l 1
 562 161 l 2
 577 145 585 124 585 102 c 0
 585 54 544 14 496 14 c 0
 465 14 437 32 422 59 c 2
 350 183 l 1
 279 58 l 2
 264 32 235 14 204 14 c 0
 157 14 115 54 115 102 c 0
 115 124 124 145 138 161 c 2
 235 267 l 1
 94 296 l 2
 54 305 25 339 25 380 c 0
 25 429 62 470 112 470 c 0
 124 470 137 467 148 462 c 2
 279 403 l 1
 263 546 l 1
 263 555 l 2
 263 604 301 642 350 642 c 0
EndSplineSet
EndChar

StartChar: approxequal
Encoding: 8776 8776 240
Width: 701
Flags: W
LayerCount: 2
Fore
SplineSet
350 642 m 0
 399 642 438 605 438 555 c 0
 438 552 438 549 437 546 c 2
 422 403 l 1
 553 462 l 2
 564 467 577 470 589 470 c 0
 638 470 676 429 676 381 c 0
 676 339 647 305 606 296 c 2
 466 267 l 1
 562 161 l 2
 577 145 585 124 585 102 c 0
 585 54 544 14 496 14 c 0
 465 14 437 32 422 59 c 2
 350 183 l 1
 279 58 l 2
 264 32 235 14 204 14 c 0
 157 14 115 54 115 102 c 0
 115 124 124 145 138 161 c 2
 235 267 l 1
 94 296 l 2
 54 305 25 339 25 380 c 0
 25 429 62 470 112 470 c 0
 124 470 137 467 148 462 c 2
 279 403 l 1
 263 546 l 1
 263 555 l 2
 263 604 301 642 350 642 c 0
EndSplineSet
EndChar

StartChar: notequal
Encoding: 8800 8800 241
Width: 701
Flags: W
LayerCount: 2
Fore
SplineSet
350 642 m 0
 399 642 438 605 438 555 c 0
 438 552 438 549 437 546 c 2
 422 403 l 1
 553 462 l 2
 564 467 577 470 589 470 c 0
 638 470 676 429 676 381 c 0
 676 339 647 305 606 296 c 2
 466 267 l 1
 562 161 l 2
 577 145 585 124 585 102 c 0
 585 54 544 14 496 14 c 0
 465 14 437 32 422 59 c 2
 350 183 l 1
 279 58 l 2
 264 32 235 14 204 14 c 0
 157 14 115 54 115 102 c 0
 115 124 124 145 138 161 c 2
 235 267 l 1
 94 296 l 2
 54 305 25 339 25 380 c 0
 25 429 62 470 112 470 c 0
 124 470 137 467 148 462 c 2
 279 403 l 1
 263 546 l 1
 263 555 l 2
 263 604 301 642 350 642 c 0
EndSplineSet
EndChar

StartChar: lessequal
Encoding: 8804 8804 242
Width: 701
Flags: W
LayerCount: 2
Fore
SplineSet
350 642 m 0
 399 642 438 605 438 555 c 0
 438 552 438 549 437 546 c 2
 422 403 l 1
 553 462 l 2
 564 467 577 470 589 470 c 0
 638 470 676 429 676 381 c 0
 676 339 647 305 606 296 c 2
 466 267 l 1
 562 161 l 2
 577 145 585 124 585 102 c 0
 585 54 544 14 496 14 c 0
 465 14 437 32 422 59 c 2
 350 183 l 1
 279 58 l 2
 264 32 235 14 204 14 c 0
 157 14 115 54 115 102 c 0
 115 124 124 145 138 161 c 2
 235 267 l 1
 94 296 l 2
 54 305 25 339 25 380 c 0
 25 429 62 470 112 470 c 0
 124 470 137 467 148 462 c 2
 279 403 l 1
 263 546 l 1
 263 555 l 2
 263 604 301 642 350 642 c 0
EndSplineSet
EndChar

StartChar: greaterequal
Encoding: 8805 8805 243
Width: 701
Flags: W
LayerCount: 2
Fore
SplineSet
350 642 m 0
 399 642 438 605 438 555 c 0
 438 552 438 549 437 546 c 2
 422 403 l 1
 553 462 l 2
 564 467 577 470 589 470 c 0
 638 470 676 429 676 381 c 0
 676 339 647 305 606 296 c 2
 466 267 l 1
 562 161 l 2
 577 145 585 124 585 102 c 0
 585 54 544 14 496 14 c 0
 465 14 437 32 422 59 c 2
 350 183 l 1
 279 58 l 2
 264 32 235 14 204 14 c 0
 157 14 115 54 115 102 c 0
 115 124 124 145 138 161 c 2
 235 267 l 1
 94 296 l 2
 54 305 25 339 25 380 c 0
 25 429 62 470 112 470 c 0
 124 470 137 467 148 462 c 2
 279 403 l 1
 263 546 l 1
 263 555 l 2
 263 604 301 642 350 642 c 0
EndSplineSet
EndChar

StartChar: lozenge
Encoding: 9674 9674 244
Width: 701
Flags: W
LayerCount: 2
Fore
SplineSet
350 642 m 0
 399 642 438 605 438 555 c 0
 438 552 438 549 437 546 c 2
 422 403 l 1
 553 462 l 2
 564 467 577 470 589 470 c 0
 638 470 676 429 676 381 c 0
 676 339 647 305 606 296 c 2
 466 267 l 1
 562 161 l 2
 577 145 585 124 585 102 c 0
 585 54 544 14 496 14 c 0
 465 14 437 32 422 59 c 2
 350 183 l 1
 279 58 l 2
 264 32 235 14 204 14 c 0
 157 14 115 54 115 102 c 0
 115 124 124 145 138 161 c 2
 235 267 l 1
 94 296 l 2
 54 305 25 339 25 380 c 0
 25 429 62 470 112 470 c 0
 124 470 137 467 148 462 c 2
 279 403 l 1
 263 546 l 1
 263 555 l 2
 263 604 301 642 350 642 c 0
EndSplineSet
EndChar

StartChar: fi
Encoding: 64257 64257 245
Width: 877
Flags: W
LayerCount: 2
Fore
SplineSet
624 474 m 1
 514 474 l 2
 489 474 448 447 436 415 c 2
 421 373 l 1
 509 373 l 1
 509 215 l 1
 362 215 l 1
 342 163 l 2
 308 70 215 0 126 0 c 2
 25 0 l 1
 25 159 l 1
 126 159 l 2
 144 159 181 184 194 218 c 2
 288 470 l 2
 322 563 419 633 514 633 c 2
 624 633 l 1
 624 474 l 1
864 557 m 0
 864 501 819 456 763 456 c 0
 707 456 662 501 662 557 c 0
 662 613 707 658 763 658 c 0
 819 658 864 613 864 557 c 0
842 1 m 1
 684 1 l 1
 684 421 l 1
 842 421 l 1
 842 1 l 1
EndSplineSet
Ligature2: "'liga' Standard Ligatures in Latin lookup 0 subtable" f i
EndChar

StartChar: fl
Encoding: 64258 64258 246
Width: 1177
Flags: W
LayerCount: 2
Fore
SplineSet
624 474 m 1
 514 474 l 2
 489 474 448 447 436 415 c 2
 421 373 l 1
 509 373 l 1
 509 215 l 1
 362 215 l 1
 342 163 l 2
 308 70 215 0 126 0 c 2
 25 0 l 1
 25 159 l 1
 126 159 l 2
 144 159 181 184 194 218 c 2
 288 470 l 2
 322 563 419 633 514 633 c 2
 624 633 l 1
 624 474 l 1
840 633 m 1
 985 215 l 2
 998 180 1013 157 1052 157 c 2
 1152 157 l 1
 1152 0 l 1
 1052 0 l 2
 958 0 868 75 838 162 c 2
 674 633 l 1
 840 633 l 1
EndSplineSet
Ligature2: "'liga' Standard Ligatures in Latin lookup 0 subtable" f l
EndChar

StartChar: apple
Encoding: 65538 -1 247
Width: 657
Flags: W
LayerCount: 2
Fore
SplineSet
350 545 m 0
 343 545 339 548 339 553 c 2
 339 562 l 2
 339 600 354 634 384 665 c 0
 412 693 444 712 483 720 c 1
 483 717 483 713 484 707 c 2
 484 693 l 2
 484 658 470 625 443 593 c 0
 416 561 385 545 350 545 c 0
618 481 m 1
 599 470 584 457 571 442 c 1
 46 442 l 1
 81 516 139 553 220 553 c 0
 235 553 257 548 284 538 c 0
 312 528 331 523 342 523 c 0
 352 523 371 528 398 538 c 0
 425 548 447 553 462 553 c 0
 524 553 576 529 618 481 c 1
556 423 m 1
 542 402 534 378 531 353 c 1
 25 353 l 1
 26 378 31 402 39 423 c 1
 556 423 l 1
111 85 m 1
 96 105 83 127 71 152 c 1
 613 152 l 1
 600 126 588 104 576 85 c 1
 111 85 l 1
230 0 m 0
 197 0 162 22 125 66 c 1
 563 66 l 1
 531 22 495 0 454 0 c 0
 441 0 422 5 398 14 c 0
 374 24 356 29 343 29 c 0
 330 29 312 24 287 15 c 0
 262 5 243 0 230 0 c 0
549 260 m 1
 34 260 l 1
 29 285 26 309 25 334 c 1
 530 334 l 1
 531 306 537 281 549 260 c 1
562 241 m 1
 579 221 602 204 632 191 c 1
 622 170 l 1
 63 170 l 1
 52 195 43 219 38 241 c 1
 562 241 l 1
EndSplineSet
EndChar
